<?xml version="1.0" encoding="utf-8"?>
<!-- Generator: Adobe Illustrator 24.0.3, SVG Export Plug-In . SVG Version: 6.00 Build 0)  -->
<svg version="1.1" id="Layer_1" xmlns="http://www.w3.org/2000/svg" xmlns:xlink="http://www.w3.org/1999/xlink" x="0px" y="0px"
	 viewBox="0 0 792 612" style="enable-background:new 0 0 792 612;" xml:space="preserve">
<style type="text/css">
	.st0{fill:#90BA93;stroke:#000000;stroke-miterlimit:10;}
</style>
<g>
	<g>
		<g>
			<ellipse class="st0" cx="413.4" cy="246.5" rx="151.6" ry="146.2"/>
			<path d="M318.2,132.3c0.1,0.1,0,0.2-0.2,0.4c-0.1,0.1-0.2,0.2-0.4,0.3l-2.5,2l-2.4,2.2c-0.1,0.1-0.2,0.2-0.3,0.3
				c-0.3,0.2-0.4,0.3-0.5,0.2s0-0.4,0.3-0.7c1.1-1,1.6-1.6,1.4-1.8c0,0-0.1,0-0.2-0.1l-0.6-0.3l-0.3-0.2c-0.4-0.3-1.4-0.8-2.9-1.7
				l-4.1,3.6c0.9,2.5,1.4,3.9,1.7,4.2c0.1,0.2,0.3,0.2,0.5,0.1c0,0,0.4-0.3,1-0.8c0.4-0.3,0.6-0.4,0.7-0.3c0.1,0.1,0,0.3-0.3,0.6
				c-0.6,0.5-1.3,1.1-2.1,1.7c-0.2,0.2-0.4,0.3-0.6,0.5s-0.4,0.4-0.5,0.6c-0.1,0.1-0.2,0.2-0.2,0.2c-0.2,0.2-0.3,0.2-0.4,0.1
				c-0.1-0.1,0.1-0.3,0.4-0.7c0.4-0.4,0.6-0.7,0.7-0.9s0.1-0.6-0.1-0.9c-2.1-5.7-3.8-10.3-5.1-13.8c-0.1-0.2-0.2-0.4-0.2-0.6V126
				c-0.1-0.2-0.1-0.3,0-0.3c0,0,0.1,0,0.2,0c0.6,0.3,1.8,0.9,3.6,1.9c1.4,0.7,5.1,2.6,10.8,5.5c0.3,0.2,0.6,0.2,0.8,0.2
				c0.2-0.1,0.6-0.3,1.1-0.7C317.9,132.2,318.1,132.2,318.2,132.3z M309.4,132.6c-0.7-0.3-1.8-0.9-3.3-1.7l-3-1.6
				c0.6,1.8,1.4,4,2.5,6.7L309.4,132.6z"/>
			<path d="M321.2,111c0.1,0.1,0,0.3-0.4,0.5l-0.5,0.3l-0.4,0.3c-0.2,0.2-0.3,0.3-0.3,0.4s0.1,0.3,0.4,0.7l7.7,10.9
				c0.5,0.7,0.7,1.1,0.8,1.2s0.1,0.2,0,0.3c-0.1,0.1-0.2,0.1-0.4,0l-5.1-1.7c-3-1-6.7-2.2-11-3.8l7.5,10.6c0.1,0.2,0.3,0.2,0.5,0.1
				c0.2-0.1,0.7-0.4,1.5-0.9c0.2-0.1,0.3-0.1,0.4,0s0,0.3-0.4,0.6c-0.1,0.1-0.5,0.3-1.2,0.8c-0.2,0.1-0.4,0.3-0.7,0.4
				c0,0-0.1,0.1-0.3,0.3c-0.2,0.2-0.6,0.5-1.1,0.9L318,133c-0.3,0.2-0.5,0.3-0.6,0.2s0-0.3,0.3-0.5c0.8-0.6,1.2-1,1.3-1.1
				c0.1-0.2-0.1-0.5-0.4-0.9l-6.6-9.4c-0.7-1-1.4-1.5-2.1-1.5c-0.3,0-0.7,0.2-1.3,0.6c-0.4,0.3-0.6,0.3-0.7,0.2
				c-0.1-0.1,0-0.3,0.2-0.4c0.3-0.2,0.6-0.4,1.1-0.7c0.4-0.3,0.7-0.4,0.7-0.4s0.2-0.2,0.6-0.4c0.5-0.3,0.9-0.7,1.3-1l14,4.7l-6-8.4
				c-0.3-0.4-0.5-0.6-0.5-0.7c-0.1-0.1-0.2-0.1-0.3-0.1s-0.5,0.2-1,0.6s-0.8,0.5-0.9,0.4s0-0.3,0.4-0.5l0.7-0.5
				c0.2-0.1,0.4-0.3,0.6-0.4c0.2-0.2,0.4-0.2,0.4-0.3c0,0,0.1-0.1,0.4-0.3c0.2-0.2,0.4-0.3,0.6-0.4l0.6-0.5
				C321,110.9,321.2,110.8,321.2,111z"/>
			<path d="M336.8,102.2c0.1,0.1-0.1,0.3-0.5,0.5l-0.5,0.3l-0.4,0.2c-0.2,0.1-0.4,0.2-0.4,0.3s0.1,0.3,0.3,0.7l6.5,11.6
				c0.4,0.7,0.6,1.1,0.7,1.3c0.1,0.1,0,0.2,0,0.3c-0.1,0-0.2,0-0.4-0.1l-4.9-2.2c-2.9-1.3-6.4-2.9-10.6-4.9l6.3,11.3
				c0.1,0.2,0.3,0.2,0.5,0.1s0.8-0.3,1.5-0.7c0.2-0.1,0.3-0.1,0.4,0s-0.1,0.3-0.5,0.5c-0.1,0.1-0.6,0.3-1.3,0.6
				c-0.2,0.1-0.5,0.2-0.7,0.4c0,0-0.1,0.1-0.4,0.3c-0.3,0.2-0.7,0.4-1.2,0.7l-0.2,0.1c-0.3,0.2-0.5,0.2-0.6,0.1s0-0.3,0.3-0.4
				c0.9-0.5,1.3-0.8,1.4-1s0-0.5-0.3-1l-5.6-10c-0.6-1.1-1.3-1.7-1.9-1.7c-0.3,0-0.8,0.2-1.4,0.5c-0.4,0.2-0.6,0.2-0.7,0.1
				s0-0.3,0.2-0.4c0.3-0.2,0.7-0.4,1.1-0.6c0.5-0.2,0.7-0.4,0.8-0.4c0,0,0.2-0.1,0.6-0.4c0.5-0.3,0.9-0.6,1.4-0.9l13.4,6.2l-5-9
				c-0.2-0.4-0.4-0.7-0.4-0.7c-0.1-0.1-0.2-0.1-0.3-0.1s-0.5,0.2-1.1,0.5c-0.5,0.3-0.8,0.4-0.9,0.3s0.1-0.3,0.4-0.5l0.8-0.4
				c0.2-0.1,0.4-0.2,0.6-0.3c0.2-0.1,0.4-0.2,0.4-0.2s0.1-0.1,0.4-0.2c0.2-0.1,0.5-0.3,0.7-0.4l0.7-0.4
				C336.6,102,336.8,102,336.8,102.2z"/>
			<path d="M364.9,107.5c0.1,0.1,0,0.2-0.3,0.3l-0.2,0.1l-2.8,1.1l-2.8,1.1c-0.1,0-0.2,0.1-0.3,0.1c-0.3,0.1-0.5,0.1-0.5,0
				s0.1-0.3,0.5-0.4c0.8-0.4,1.2-0.7,1.1-0.8c-0.1-0.2-3.1-1.7-9.2-4.5l2.4,6.2c0.2,0.5,0.4,0.8,0.6,0.8s0.7-0.1,1.5-0.4
				c0.2-0.1,0.3,0,0.3,0.1c0.1,0.1,0,0.2-0.3,0.3c-0.2,0.1-0.3,0.1-0.4,0.2l-3.3,1.3c-0.2,0.1-0.4,0.2-0.7,0.3
				c-0.3,0.1-0.6,0.2-0.8,0.3l-0.2,0.1c-0.2,0.1-0.4,0.1-0.4,0c-0.1-0.1,0.2-0.3,0.8-0.6c0.5-0.2,0.8-0.5,0.8-0.7
				c0-0.1-0.1-0.6-0.5-1.4l-4.7-12c-0.1-0.3-0.6-0.3-1.5,0.1c-0.4,0.2-0.6,0.1-0.7,0s0.1-0.2,0.3-0.4c0.1,0,0.2-0.1,0.3-0.1
				c0.3-0.1,1-0.3,2.1-0.8c1.2-0.5,2-0.8,2.3-1c0.2-0.1,0.3-0.2,0.5-0.2c0.3-0.1,0.5-0.1,0.5,0.1c0,0.1,0,0.2-0.1,0.2
				c-0.1,0.1-0.4,0.2-0.8,0.4s-0.7,0.4-0.8,0.5c0,0.1,0,0.5,0.2,1l2.1,5.3l1.3-2.6c1.9-4,2.9-6,2.8-6.1c-0.1-0.2-0.5-0.1-1.2,0.2
				c-0.5,0.2-0.7,0.2-0.8,0.1c0-0.1,0-0.2,0.3-0.3c0.2-0.1,1-0.4,2.3-0.9l1.3-0.5c0.6-0.2,0.9-0.3,1-0.3c0.2,0,0.3,0,0.3,0.1
				c0.1,0.2-0.1,0.3-0.4,0.4c-0.7,0.3-1.2,0.5-1.4,0.6c-0.2,0.1-0.3,0.3-0.5,0.6c-0.6,1.4-1.6,3.5-2.9,6.2l-0.4,0.8l-0.2,0.4
				c0.1,0.1,0.7,0.3,1.6,0.7c1.8,0.7,4.5,2,8,3.8c0.7,0.4,1.2,0.6,1.5,0.6c0.2,0,0.7,0,1.2-0.2C364.6,107.4,364.9,107.4,364.9,107.5
				z"/>
			<path d="M378.3,103.4c0.2,0.6-0.3,1.1-1.4,1.4c-1.3,0.4-2.4,0.1-3.4-0.6c-0.4-0.3-0.7-0.7-0.9-1c-0.2-0.4-0.6-1.3-1.2-2.8
				c-0.4-0.9-0.9-1.5-1.6-1.7s-1.7-0.2-3,0.1l2,7c0.1,0.3,0.4,0.4,0.9,0.3c0.2,0,0.5-0.1,1.1-0.3c0.2-0.1,0.3,0,0.4,0.1
				c0,0.1-0.1,0.2-0.4,0.3l-0.3,0.1c-0.1,0-0.9,0.2-2.1,0.6c-0.2,0.1-0.7,0.2-1.2,0.3c-0.6,0.2-0.9,0.3-1.1,0.3l-1,0.3
				c-0.4,0.1-0.6,0.1-0.6-0.1c0-0.1,0.2-0.2,0.7-0.4c0.8-0.2,1.1-0.4,1.2-0.6c0-0.1,0-0.4-0.1-0.9l-3.4-12.3c-0.2-0.6-0.3-0.9-0.5-1
				s-0.6,0-1.3,0.1c-0.4,0.1-0.6,0.1-0.7,0c0-0.1,0.1-0.3,0.3-0.3c0,0,0.1,0,0.2,0l3.3-0.8c0.3-0.1,0.8-0.2,1.4-0.4
				c0.6-0.2,1.1-0.4,1.3-0.4c1.5-0.4,2.8-0.4,3.9-0.1c1.1,0.4,1.7,1.1,2,2.1s0.1,2-0.6,3c-0.7,0.9-1.8,1.7-3.4,2.2
				c-0.1,0.1-0.2,0.1-0.2,0.1c0,0.1,0.1,0.1,0.3,0c1.8-0.2,3.1,0,4,0.7c0.9,0.6,1.7,2,2.5,4.1c0.5,1.2,1.1,1.7,1.9,1.5
				c0.2-0.1,0.4-0.1,0.3-0.2l0,0c-0.1-0.1-0.2-0.3-0.2-0.4c-0.1-0.3,0-0.5,0.4-0.6C377.9,102.9,378.2,103,378.3,103.4z M370.1,93.6
				c-0.6-2.1-1.9-2.9-3.9-2.3c-0.5,0.1-0.9,0.3-1,0.5c-0.2,0.2-0.2,0.5-0.1,0.8l1.6,5.7c1.6-0.4,2.6-1,3.2-1.7
				C370.3,95.8,370.4,94.8,370.1,93.6z"/>
			<path d="M385.2,102.6c0,0.1-0.1,0.2-0.3,0.3l-0.2,0.1c-0.1,0-1.2,0.2-3.4,0.6c-0.4,0.1-0.8,0.2-1.2,0.3c-0.2,0.1-0.5,0.1-1,0.2
				c-0.2,0-0.3,0-0.4-0.1c0-0.1,0.2-0.2,0.6-0.3c0.7-0.1,1-0.3,1.1-0.5s0.1-0.6-0.1-1.3l-2.4-12c-0.2-0.7-0.3-1.2-0.4-1.2
				c-0.1-0.1-0.6-0.1-1.4,0c-0.3,0.1-0.5,0-0.5-0.1s0.1-0.2,0.3-0.2l3.4-0.7c0.3-0.1,0.7-0.1,1.5-0.3l0.9-0.2c0.3-0.1,0.4,0,0.4,0.1
				s-0.3,0.3-1.1,0.4c-0.4,0.1-0.7,0.2-0.7,0.4c-0.1,0.1-0.1,0.5,0.1,1l2.5,12.1c0.2,0.9,0.3,1.3,0.4,1.4c0.2,0.1,0.8,0.1,1.7,0
				C385.1,102.5,385.2,102.5,385.2,102.6z"/>
			<path d="M396.7,96.6c0.2,1.3-0.2,2.5-1.2,3.6s-2.2,1.7-3.8,1.9c-0.9,0.1-2,0-3.3-0.3c-0.4-0.1-0.6-0.1-0.8-0.1
				c-0.2,0-0.3,0.3-0.3,0.7c0,0.2-0.1,0.3-0.3,0.4c-0.2,0-0.3-0.1-0.3-0.2s0-0.2,0-0.3c0-1,0-1.8-0.2-2.6c0-0.2-0.1-0.6-0.2-1.3
				c0-0.1-0.1-0.2-0.1-0.4c0-0.2,0.1-0.4,0.3-0.4c0.2,0,0.3,0.1,0.4,0.5c0.8,2.7,2.4,3.9,4.8,3.5c1-0.1,1.8-0.5,2.3-1.1
				s0.7-1.4,0.5-2.4c-0.1-0.9-0.5-1.6-1.1-2.1s-1.6-1-3-1.4c-1.7-0.5-2.9-1-3.6-1.6s-1.1-1.4-1.3-2.4c-0.2-1.3,0.1-2.4,0.9-3.3
				c0.8-1,1.9-1.5,3.2-1.7c0.6-0.1,1.4,0,2.4,0.2c0.4,0.1,0.6,0.1,0.8,0.1c0.2,0,0.3-0.1,0.4-0.1c0-0.1,0.1-0.2,0.1-0.5
				c0-0.2,0.1-0.2,0.2-0.3c0.2,0,0.3,0.1,0.3,0.2s0,0.2,0,0.3c0,0.4,0,0.8,0.1,1.3c0.1,0.7,0.2,1.3,0.4,1.7l0.1,0.4
				c0,0.2,0,0.3-0.2,0.3s-0.3-0.1-0.4-0.5c-0.3-0.9-0.8-1.6-1.6-2.1c-0.8-0.5-1.6-0.7-2.4-0.6s-1.5,0.5-1.9,1
				c-0.4,0.6-0.6,1.3-0.5,2.1c0.1,1,0.6,1.7,1.4,2.2c0.4,0.3,1.4,0.6,2.8,1.1c1.7,0.5,2.9,1.1,3.7,1.7
				C396.2,94.8,396.6,95.6,396.7,96.6z"/>
			<path d="M411.6,88.2c0,0.2-0.1,0.3-0.3,0.3c-0.2,0-0.4-0.2-0.5-0.6c0-0.3-0.1-0.6-0.1-0.8c-0.1-0.5-0.4-1-0.7-1.4
				c-0.4-0.5-1-0.8-1.8-0.9c-0.5-0.1-1-0.1-1.3-0.1c-0.8,0.1-1.3,0.1-1.4,0.1l0.7,14c0,0.6,0.2,0.9,0.5,1c0.2,0.1,0.6,0.1,1.4,0.1
				c0.2,0,0.3,0.1,0.3,0.2s-0.1,0.2-0.4,0.2c-0.1,0-0.3,0-0.4,0c-1,0-1.7,0-2.2,0.1c-0.6,0-1.1,0.1-1.6,0.1s-1.1,0.1-1.9,0.1
				c-0.4,0-0.6,0-0.6-0.2c0-0.1,0.4-0.2,1.1-0.3c0.5,0,0.9-0.1,1-0.4c0.1-0.1,0.1-0.4,0.1-1L403,85.1c-1.7,0.1-2.7,0.2-3.1,0.4
				c-1,0.4-1.6,1.4-1.7,2.9c0,0.5-0.1,0.7-0.3,0.7c-0.2,0-0.3-0.1-0.3-0.5c0-0.2,0-0.3,0-0.5v-0.5c0-0.7,0-1.7,0.1-2.8l1.1-0.1
				l5.2-0.2c0.6,0,1.6-0.1,2.8-0.1l4.2-0.3c0.1,0.9,0.3,2.1,0.5,3.8C411.5,87.9,411.5,88,411.6,88.2
				C411.6,88.2,411.6,88.2,411.6,88.2z"/>
			<path d="M419.6,100.2c0,0.1-0.1,0.2-0.3,0.2H419c-0.1,0-1.3-0.1-3.5-0.1c-0.4,0-0.8,0-1.3,0c-0.2,0-0.6,0-1,0
				c-0.2,0-0.3-0.1-0.3-0.2s0.2-0.2,0.7-0.2c0.7,0,1.1-0.1,1.2-0.2s0.2-0.6,0.2-1.3l0.2-12.2c0-0.8,0-1.2-0.1-1.3
				c-0.1-0.2-0.6-0.3-1.4-0.3c-0.3,0-0.5-0.1-0.5-0.2s0.1-0.2,0.3-0.2l3.5,0.1c0.3,0,0.8,0,1.5,0h1c0.3,0,0.4,0.1,0.4,0.2
				s-0.4,0.2-1.1,0.2c-0.4,0-0.7,0.1-0.8,0.2c-0.1,0.1-0.2,0.4-0.2,1l-0.2,12.4c0,0.9,0,1.4,0.1,1.4c0.2,0.2,0.7,0.3,1.7,0.3
				C419.5,100,419.6,100.1,419.6,100.2z"/>
			<path d="M437.7,86c0,0.2-0.2,0.2-0.7,0.1l-0.6-0.1h-0.5c-0.3,0-0.4,0-0.5,0.1s-0.1,0.3-0.1,0.8l-1.2,13.3
				c-0.1,0.8-0.1,1.3-0.2,1.4c0,0.1-0.1,0.2-0.2,0.2s-0.2-0.1-0.3-0.3l-2.8-4.6c-1.6-2.7-3.6-6-5.9-10l-1.2,12.9
				c0,0.2,0.1,0.3,0.3,0.4c0.2,0.1,0.8,0.2,1.7,0.3c0.2,0,0.3,0.1,0.3,0.2c0,0.2-0.2,0.2-0.7,0.2c-0.2,0-0.6-0.1-1.4-0.2
				c-0.3,0-0.5-0.1-0.8-0.1c0,0-0.1,0-0.4,0s-0.8,0-1.4-0.1h-0.3c-0.4,0-0.6-0.1-0.6-0.3c0-0.1,0.2-0.2,0.5-0.2c1,0.1,1.6,0.1,1.7,0
				c0.2-0.1,0.3-0.4,0.3-1l1.1-11.4c0.1-1.3-0.1-2.1-0.6-2.5c-0.3-0.2-0.7-0.3-1.4-0.4c-0.4,0-0.6-0.1-0.6-0.3
				c0-0.1,0.1-0.2,0.4-0.2s0.8,0.1,1.3,0.2s0.8,0.1,0.8,0.1c0.1,0,0.3,0,0.7,0c0.6,0.1,1.1,0.1,1.6,0.1l7.6,12.7l1-10.3
				c0-0.5,0.1-0.8,0.1-0.9s-0.1-0.2-0.2-0.2s-0.5-0.1-1.2-0.2c-0.6-0.1-0.9-0.2-0.9-0.3c0-0.2,0.2-0.2,0.6-0.2l0.9,0.1
				c0.2,0,0.5,0,0.7,0.1c0.3,0,0.4,0,0.5,0c0,0,0.2,0,0.5,0s0.5,0,0.8,0.1l0.8,0.1C437.5,85.7,437.7,85.8,437.7,86z"/>
			<path d="M450.8,100.8c0,0.1-0.1,0.4-0.3,1.1c-0.2,0.7-0.3,1.3-0.4,1.9l-0.1,0.8c-1.6-0.4-4.8-1.1-9.6-2c-0.6-0.1-1.2-0.2-1.7-0.3
				s-0.9-0.2-1.1-0.2h-0.2c-0.3-0.1-0.5-0.2-0.4-0.3c0-0.1,0.1-0.1,0.2-0.1c0,0,0.4,0.1,1,0.1c0.4,0.1,0.7,0,0.8-0.1
				c0.1-0.1,0.2-0.5,0.3-1l2.5-12.8c0.1-0.4,0.1-0.7-0.1-0.8c-0.1-0.1-0.6-0.2-1.3-0.4c-0.3-0.1-0.4-0.1-0.4-0.3
				c0-0.1,0.2-0.2,0.6-0.1l4.2,0.8c0.1,0,1.1,0.2,2.8,0.5c1.7,0.3,2.9,0.6,3.5,0.7c0.5,0.1,1,0.2,1.4,0.2c-0.1,0.7-0.2,1.6-0.3,2.8
				l-0.1,1c0,0.1,0,0.2,0,0.3c0,0.2-0.1,0.2-0.3,0.2c-0.2,0-0.3-0.3-0.3-0.6c0-1.4-0.4-2.4-1-2.9c-0.5-0.4-1.8-0.8-4.1-1.2l-2-0.4
				l-1.3,6.7l0.6,0.1c1.9,0.4,3,0.4,3.5,0.3c0.5-0.2,0.9-0.9,1.3-2.1c0.1-0.3,0.2-0.5,0.4-0.4c0.2,0,0.2,0.2,0.2,0.5
				c-0.1,0.3-0.1,0.7-0.3,1.2c-0.1,0.5-0.2,0.9-0.3,1.2c-0.3,1.6-0.5,2.7-0.6,3.4c0,0.2,0,0.3-0.1,0.4c0,0.2-0.1,0.3-0.3,0.2
				c-0.1,0-0.2-0.1-0.2-0.2s0-0.6,0-1.3c0-0.9-0.3-1.6-0.9-1.9c-0.3-0.1-1-0.3-2.3-0.6L443,95l-1.5,7.6c3.6,0.7,5.8,1.1,6.5,1
				c1.1,0,1.9-0.9,2.4-2.5c0.1-0.4,0.2-0.5,0.4-0.5C450.8,100.4,450.9,100.5,450.8,100.8z"/>
			<path d="M469.4,106.5c0,0.1-0.2,0.4-0.4,1.1s-0.5,1.3-0.7,1.9l-0.2,0.7c-1.5-0.6-4.6-1.7-9.3-3.2c-0.6-0.2-1.1-0.4-1.7-0.5
				c-0.5-0.2-0.9-0.3-1.1-0.4l-0.2-0.1c-0.3-0.1-0.4-0.2-0.4-0.3c0-0.1,0.1-0.1,0.2-0.1c0,0,0.4,0.1,0.9,0.2c0.4,0.1,0.7,0.1,0.8,0
				c0.1-0.1,0.3-0.4,0.5-1l4-12.4c0.1-0.4,0.2-0.7,0-0.8c-0.1-0.1-0.5-0.3-1.3-0.5c-0.3-0.1-0.4-0.2-0.3-0.3s0.2-0.1,0.6,0l4.1,1.3
				c0.1,0,1.1,0.3,2.7,0.9c1.7,0.5,2.8,0.9,3.4,1.1c0.5,0.2,0.9,0.3,1.4,0.3c-0.2,0.6-0.4,1.5-0.6,2.7l-0.2,1c0,0.1,0,0.2-0.1,0.3
				c0,0.1-0.1,0.2-0.3,0.2c-0.2-0.1-0.2-0.3-0.2-0.7c0.1-1.4-0.1-2.4-0.7-3c-0.4-0.4-1.7-1-3.9-1.7l-2-0.6l-2.1,6.5l0.6,0.2
				c1.8,0.6,2.9,0.8,3.4,0.7c0.5-0.1,1-0.8,1.5-1.9c0.1-0.3,0.3-0.4,0.4-0.4c0.2,0.1,0.2,0.2,0.1,0.5s-0.2,0.6-0.4,1.2
				c-0.2,0.5-0.3,0.9-0.4,1.2c-0.5,1.6-0.8,2.7-1,3.3c0,0.2-0.1,0.3-0.1,0.4c-0.1,0.2-0.2,0.3-0.4,0.2c-0.1,0-0.2-0.1-0.2-0.3
				c0-0.1,0.1-0.6,0.2-1.3c0.2-0.9-0.1-1.6-0.7-2c-0.3-0.2-1-0.5-2.2-0.9l-1.1-0.3l-2.4,7.4c3.5,1.1,5.6,1.8,6.3,1.8
				c1.1,0.1,2-0.6,2.7-2.2c0.1-0.4,0.3-0.5,0.5-0.4C469.5,106,469.5,106.2,469.4,106.5z"/>
			<path d="M481.1,110.6c-0.5,1.2-1.5,2.1-2.9,2.5s-2.8,0.3-4.2-0.3c-0.8-0.4-1.7-1-2.7-2c-0.3-0.3-0.5-0.4-0.6-0.5
				c-0.2-0.1-0.4,0.1-0.6,0.4c-0.1,0.2-0.2,0.3-0.4,0.2c-0.2-0.1-0.2-0.2-0.1-0.4c0-0.1,0.1-0.2,0.1-0.2c0.5-0.8,0.9-1.6,1.2-2.3
				c0.1-0.1,0.2-0.5,0.5-1.2c0-0.1,0.1-0.2,0.1-0.4c0.1-0.2,0.2-0.3,0.4-0.2c0.2,0.1,0.2,0.3,0.1,0.7c-0.7,2.7,0.1,4.6,2.3,5.5
				c0.9,0.4,1.8,0.5,2.5,0.2s1.3-0.9,1.7-1.8c0.3-0.8,0.4-1.6,0.1-2.4s-0.9-1.7-1.9-2.8c-1.2-1.3-1.9-2.4-2.3-3.2
				c-0.3-0.9-0.3-1.8,0.1-2.7c0.5-1.2,1.3-2,2.5-2.4s2.4-0.4,3.6,0.2c0.5,0.2,1.2,0.7,2,1.4c0.3,0.3,0.5,0.4,0.7,0.5
				s0.3,0.1,0.4,0.1s0.2-0.2,0.3-0.4c0.1-0.1,0.2-0.2,0.3-0.1c0.2,0.1,0.2,0.2,0.1,0.4c0,0.1-0.1,0.2-0.1,0.2
				c-0.2,0.3-0.4,0.7-0.6,1.2c-0.3,0.7-0.5,1.2-0.6,1.7l-0.1,0.4c-0.1,0.2-0.2,0.2-0.3,0.1c-0.2-0.1-0.2-0.3-0.1-0.6
				c0.2-0.9,0.1-1.8-0.3-2.6c-0.4-0.8-1-1.4-1.8-1.8c-0.8-0.3-1.5-0.4-2.1-0.1s-1.1,0.8-1.5,1.6c-0.4,0.9-0.4,1.8,0.1,2.6
				c0.2,0.5,0.9,1.3,1.9,2.4c1.2,1.3,1.9,2.4,2.3,3.4C481.5,108.8,481.5,109.7,481.1,110.6z"/>
			<path d="M498.1,111c-0.1,0.2-0.2,0.2-0.4,0.1s-0.2-0.3-0.1-0.7c0.1-0.3,0.2-0.5,0.3-0.8c0.2-0.5,0.2-1.1,0.1-1.5
				c-0.1-0.6-0.4-1.2-1.1-1.7c-0.4-0.3-0.8-0.6-1.1-0.7c-0.7-0.4-1.1-0.6-1.3-0.6l-6.6,12.4c-0.3,0.5-0.3,0.9-0.1,1.1
				c0.1,0.1,0.5,0.4,1.2,0.8c0.2,0.1,0.2,0.2,0.2,0.3c-0.1,0.1-0.2,0.1-0.5,0c-0.1-0.1-0.2-0.1-0.3-0.2c-0.9-0.5-1.5-0.9-1.9-1
				c-0.5-0.3-1-0.5-1.4-0.7s-1-0.5-1.7-0.8c-0.3-0.2-0.5-0.3-0.4-0.4s0.4,0,1.1,0.3c0.5,0.2,0.8,0.3,1,0.2c0.1-0.1,0.3-0.3,0.6-0.8
				l6.5-12.3c-1.5-0.8-2.4-1.2-2.9-1.3c-1.1-0.2-2.1,0.4-3,1.6c-0.3,0.4-0.5,0.5-0.6,0.4c-0.2-0.1-0.2-0.3,0-0.6
				c0.1-0.2,0.2-0.3,0.3-0.4l0.3-0.4c0.4-0.6,0.9-1.4,1.5-2.4l1,0.5l4.5,2.5c0.5,0.3,1.4,0.7,2.5,1.3l3.7,1.9
				c-0.4,0.8-0.9,2-1.5,3.6c0,0,0,0.1-0.1,0.2C498.1,111,498.1,111,498.1,111z"/>
			<path d="M506.3,130.5c-0.1,0.1-0.2,0.1-0.4,0c-0.1-0.1-0.3-0.2-0.4-0.3l-2.6-1.8l-2.7-1.7c-0.1-0.1-0.2-0.1-0.3-0.2
				c-0.3-0.2-0.4-0.3-0.3-0.5c0.1-0.1,0.3-0.1,0.7,0.2c1.2,0.8,1.9,1.1,2.1,0.9c0,0,0-0.1,0.1-0.2l0.2-0.6l0.1-0.3
				c0.1-0.5,0.4-1.6,0.8-3.3l-4.5-3c-2.2,1.5-3.4,2.4-3.6,2.7c-0.1,0.2-0.1,0.3,0,0.5c0,0,0.4,0.3,1,0.8c0.4,0.3,0.6,0.5,0.5,0.6
				s-0.3,0.1-0.7-0.2c-0.6-0.4-1.4-1-2.2-1.6c-0.2-0.2-0.4-0.3-0.6-0.5c-0.2-0.1-0.5-0.3-0.7-0.4c-0.1-0.1-0.2-0.1-0.3-0.1
				c-0.2-0.1-0.3-0.3-0.2-0.4c0.1-0.1,0.3,0,0.8,0.2s0.8,0.4,1.1,0.4c0.3,0,0.6-0.1,0.9-0.3c5-3.6,9-6.4,12-8.6
				c0.1-0.1,0.3-0.3,0.5-0.4l0.3-0.3c0.1-0.1,0.2-0.1,0.3-0.1c0,0,0.1,0.1,0,0.2c-0.1,0.6-0.4,2-0.8,4c-0.3,1.6-1.1,5.6-2.4,11.9
				c-0.1,0.4-0.1,0.6,0.1,0.8c0.1,0.2,0.5,0.5,1,0.9C506.2,130.2,506.3,130.4,506.3,130.5z M503.6,122.1c0.2-0.7,0.4-1.9,0.8-3.6
				l0.8-3.4c-1.5,1-3.5,2.4-5.8,4.2L503.6,122.1z"/>
			<path d="M517,138.7c-0.4,0.5-1.1,0.4-2-0.4c-1-0.8-1.5-1.9-1.5-3.1c0-0.5,0.1-1,0.3-1.4s0.7-1.3,1.6-2.6c0.5-0.8,0.7-1.6,0.5-2.3
				s-0.8-1.5-1.8-2.3l-4.6,5.7c-0.2,0.2-0.1,0.6,0.3,1c0.1,0.1,0.4,0.4,0.9,0.8c0.2,0.1,0.2,0.3,0.1,0.4c-0.1,0.1-0.2,0.1-0.5-0.1
				l-0.2-0.2c-0.1-0.1-0.7-0.6-1.7-1.4c-0.2-0.2-0.5-0.4-1-0.8c-0.5-0.4-0.8-0.6-0.9-0.7l-0.8-0.6c-0.3-0.2-0.4-0.4-0.3-0.5
				s0.3,0,0.7,0.3c0.6,0.5,1,0.7,1.2,0.6c0.1,0,0.3-0.2,0.6-0.6l8-10c0.4-0.5,0.6-0.8,0.5-1c0-0.2-0.3-0.5-0.9-1
				c-0.3-0.3-0.4-0.5-0.4-0.6c0.1-0.1,0.3-0.1,0.5,0.1c0,0,0.1,0.1,0.2,0.2l2.6,2.2c0.3,0.2,0.6,0.5,1.1,0.9
				c0.6,0.4,0.9,0.7,1.1,0.8c1.2,1,2,2,2.3,3.1s0.1,2-0.6,2.9c-0.7,0.8-1.6,1.2-2.8,1.2s-2.4-0.5-3.8-1.5c-0.1-0.1-0.2-0.1-0.2-0.1
				s0,0.1,0.1,0.2c1.2,1.3,1.8,2.5,1.8,3.6s-0.7,2.6-1.9,4.5c-0.7,1.1-0.7,1.9-0.1,2.4c0.2,0.2,0.3,0.2,0.4,0.1c0,0,0,0,0-0.1
				c0-0.2,0.1-0.3,0.2-0.4c0.2-0.3,0.5-0.3,0.7,0C517.3,138.1,517.3,138.4,517,138.7z M520.3,126.4c1.4-1.7,1.3-3.2-0.4-4.6
				c-0.4-0.4-0.8-0.5-1-0.6s-0.5,0.1-0.7,0.4l-3.7,4.6c1.2,1,2.3,1.6,3.2,1.6S519.5,127.3,520.3,126.4z"/>
			<path d="M521.7,143.9c-0.1,0.1-0.2,0.1-0.4-0.1l-0.2-0.2c0-0.1-0.9-0.9-2.5-2.4c-0.3-0.3-0.6-0.6-1-0.8c-0.2-0.1-0.4-0.4-0.8-0.7
				c-0.2-0.2-0.2-0.3-0.1-0.4c0.1-0.1,0.3,0,0.6,0.3c0.5,0.5,0.8,0.7,1,0.7s0.5-0.3,1-0.9l8.4-8.9c0.5-0.6,0.8-0.9,0.8-1
				c0-0.2-0.2-0.6-0.8-1.2c-0.2-0.2-0.3-0.4-0.2-0.5s0.2-0.1,0.3,0.1l2.5,2.4c0.2,0.2,0.5,0.5,1.1,1l0.7,0.6
				c0.2,0.2,0.3,0.3,0.2,0.4c-0.1,0.1-0.4-0.1-1-0.6c-0.3-0.3-0.6-0.4-0.7-0.4c-0.2,0-0.4,0.2-0.8,0.6l-8.5,9
				c-0.6,0.6-0.9,1-0.9,1.1c0,0.3,0.4,0.7,1,1.4C521.7,143.7,521.8,143.8,521.7,143.9z"/>
			<path d="M533.3,149.9c-1,0.9-2.2,1.3-3.6,1.1c-1.4-0.2-2.7-0.8-3.7-2c-0.6-0.7-1.2-1.6-1.7-2.9c-0.1-0.3-0.2-0.6-0.4-0.7
				c-0.1-0.1-0.4-0.1-0.7,0.2c-0.2,0.1-0.3,0.1-0.5,0c-0.1-0.1-0.1-0.2,0-0.4c0.1-0.1,0.2-0.1,0.2-0.2c0.8-0.5,1.5-1.1,2.1-1.6
				c0.1-0.1,0.4-0.4,0.9-0.9c0.1-0.1,0.1-0.2,0.3-0.3c0.2-0.2,0.3-0.2,0.5,0c0.1,0.1,0.1,0.3-0.2,0.6c-1.7,2.2-1.8,4.2-0.1,6
				c0.7,0.8,1.4,1.2,2.2,1.2s1.5-0.3,2.2-0.9c0.6-0.6,1-1.3,1.1-2.1s-0.1-1.9-0.6-3.3c-0.6-1.7-0.8-3-0.7-3.9s0.5-1.7,1.2-2.4
				c0.9-0.9,2-1.3,3.2-1.2s2.3,0.6,3.3,1.7c0.4,0.4,0.8,1.1,1.2,2.1c0.2,0.3,0.3,0.6,0.4,0.7c0.1,0.1,0.2,0.2,0.3,0.2
				s0.2-0.1,0.5-0.2c0.1-0.1,0.3-0.1,0.4,0c0.1,0.1,0.1,0.2,0,0.4c-0.1,0.1-0.2,0.1-0.2,0.2c-0.3,0.2-0.7,0.5-1,0.9
				c-0.5,0.5-0.9,0.9-1.2,1.3l-0.3,0.3c-0.1,0.1-0.2,0.1-0.3,0s-0.1-0.3,0.1-0.6c0.5-0.8,0.8-1.6,0.8-2.5s-0.3-1.7-0.9-2.3
				c-0.6-0.6-1.2-0.9-1.9-1c-0.7,0-1.4,0.2-2,0.8c-0.7,0.7-1.1,1.5-1,2.4c0,0.5,0.3,1.5,0.7,2.9c0.5,1.7,0.8,3,0.7,4
				C534.4,148.4,534,149.2,533.3,149.9z"/>
		</g>
	</g>
	<g>
		<g>
			<g>
				<g>
					<g>
						<path d="M553.5,214.7c1.5-0.2,0.9-0.5,1.1-0.7C552.1,214.6,553.6,214.8,553.5,214.7z"/>
						<polygon points="529.4,220.4 529.8,220.1 526.3,221.4 						"/>
						<path d="M507,226.2c2.3,0.1,8-2.3,12.1-3.2h0.7l1.7-1c-2.4,0.6-5.2,1.5-7.7,2.3C511.2,225.1,508.8,225.8,507,226.2z"/>
						<path d="M494.8,228.2c0.8,0.1-2.5,1,2.8-0.8c-0.3,0-0.4,0.1-0.5,0.1C496.6,227.7,495.9,227.9,494.8,228.2z"/>
						<path d="M497,227.6C499.4,226.9,495.5,227.8,497,227.6L497,227.6z"/>
						<path d="M486.4,231.1l3-1.2c-0.7,0-3.4,0.9-2.4,0.4C483.8,231.4,484.5,231.4,486.4,231.1z"/>
						<path d="M483.6,232.5l1.5-0.6C484.9,231.9,484.5,232,483.6,232.5z"/>
						<path d="M488.5,230.6l-3.3,1.3c0.5,0,0.6,0.2,1.5-0.6C486.5,231.6,487.1,231.2,488.5,230.6z"/>
						<path d="M490.4,230.1c1.8-0.4,4-1,1,0.2C497.2,228.4,496.2,228.2,490.4,230.1z"/>
						<path d="M506.1,227.2c0.8-0.2,1.6-0.3,2.4-0.5l1.9-0.8c-0.5,0.2-1.6,0.4-2.6,0.7S506,227.2,506.1,227.2z"/>
						<path d="M467.3,237.1c-0.1,0.2,1.1,0,1.4,0.1l2.2-0.9C469.8,236.6,467.6,237.2,467.3,237.1z"/>
						<path d="M468.8,237.2l-3.3,1.4C468.5,237.6,469,237.3,468.8,237.2z"/>
						<path d="M483.3,233.4c1.8-0.8,3.6-1.5,5.4-2.3c-2.1,0.9-4.3,1.7-6.4,2.7L483.3,233.4z"/>
						<polygon points="454.6,241.5 456.4,240.5 453.2,242.2 						"/>
						<path d="M446.2,244.5c1.3-0.8-2.1,0.2-0.7-0.5c-2.3,0.9-4.1,1.8-5.8,2.6C441.5,245.9,443.5,245.2,446.2,244.5z"/>
						<path d="M436.8,248.1c0.9-0.4,1.8-0.9,2.8-1.4C438.7,247.1,437.8,247.6,436.8,248.1z"/>
						<path d="M459.8,240.5c-0.3,0-0.9,0-2.8,0.5l1.5-0.1C458.9,240.8,459.4,240.7,459.8,240.5z"/>
						<path d="M458.5,241L458.5,241c-1.5,0.5-2.5,0.8-2.9,1C456,241.8,456.9,241.5,458.5,241z"/>
						<path d="M460.1,240.4c-0.1,0-0.2,0.1-0.3,0.1C460,240.5,460,240.5,460.1,240.4z"/>
						<path d="M474.4,236c-1.9,0.9-5.9,2.5-1.8,1.5C473.9,236.8,471.6,237.3,474.4,236z"/>
						<path d="M461.9,240.3l3.6-1.1c-0.1-0.1-0.8,0,0.1-0.5L461.9,240.3z"/>
						<polygon points="460.3,241.1 461.9,240.3 460.6,240.8 						"/>
						<path d="M443,246.3c-1.5,0.7-3.1,1.3-5,2c2-0.6,4.2-1.3,6.1-2.1C444.4,246,445.2,245.5,443,246.3z"/>
						<path d="M450.6,243.7c-0.1,0-0.2,0.1-0.3,0.1C450.5,243.8,450.6,243.8,450.6,243.7z"/>
						<path d="M419.5,254.9c0.1,0,0.2,0,0.3,0v-0.1L419.5,254.9z"/>
						<path d="M444.5,246.2c1.5-0.5,2.4-0.9,3.2-1.3c-1.1,0.4-2.3,0.9-3.6,1.4C444.1,246.4,444,246.4,444.5,246.2z"/>
						<path d="M431.7,250.1c0.8-0.2,1.7-0.4,2.7-0.7C433.6,249.5,432,249.9,431.7,250.1z"/>
						<path d="M449.7,243.9c0.1,0,0.1-0.1,0.2-0.1C449.4,243.9,449.5,244,449.7,243.9z"/>
						<path d="M449.7,243.9c-0.8,0.3-1.3,0.7-1.9,1c0.9-0.4,1.8-0.7,2.5-1C450,243.9,449.8,243.9,449.7,243.9z"/>
						<path d="M414.7,259.4c0.1-0.5,4-2.2,7.6-3c3.3-1.5,0.6-1.9-2.6-1.6c0,0.2,0,0.4-3.4,1.8c1.3-0.2,7.9-2.2,5.1-0.9
							c-4.6,1.8-3.8,1.2-6.2,1.8c2.1-0.2-5.7,2.7-4.4,3l4-1.6C415,259,413.6,259.7,414.7,259.4z"/>
						<path d="M426.5,252.5l1.4-0.6c-1.7,0.5-2.9,0.8-5.1,1.2c-2.3,1-2.8,1.3-2.9,1.5l7.1-2.4L426.5,252.5z"/>
						<path d="M434.3,249.7c-1,0.8-4.4,2.2-2.1,1.9c4.2-1.5,2.8-1.4,5.3-2.5C430.8,251.6,439.4,248.2,434.3,249.7
							c1.4-0.5,2.6-1,3.7-1.4c-1.2,0.4-2.4,0.7-3.6,1.1c0.1,0,0.1,0,0.2,0l0,0l0,0c0.3-0.1,0.4-0.1,0.1,0c0,0-0.1,0-0.1,0.1
							C434.6,249.5,434.4,249.6,434.3,249.7c-2,0.6-0.3,0,0.3-0.3l0.1-0.1l0,0l-6.7,2.6C429.3,251.5,431.1,250.9,434.3,249.7z"/>
						<path d="M469.3,239.7c-0.2,0-0.2,0-0.3,0C468.6,239.8,468.4,239.9,469.3,239.7z"/>
						<path d="M466.4,240.4c0.5-0.2,0.8-0.5,2.5-1.1c1.4-0.4,0.1,0.2,0.2,0.3c0.9-0.4,3.3-1.5,0.2-0.6l-0.5,0.2
							c-2.8,0.8-6.5,1.5-6.1,1.3C463.6,240.6,464.4,240.7,466.4,240.4z"/>
						<path d="M450.2,245.2l-5.6,2.2l3-0.7l-0.2-0.2C450.6,245.5,449.8,245.5,450.2,245.2z"/>
						<polygon points="418.8,254.9 419.4,254.2 416.3,256 						"/>
						<polygon points="411.4,257.5 411.5,257 409.7,257.9 						"/>
						<path d="M441.3,287.4l-0.4-1.7C441.1,286.5,441.2,287,441.3,287.4z"/>
						<path d="M442.9,300l0.2,0.3C442.9,299.8,442.8,299.5,442.9,300z"/>
						<path d="M358.1,236.4c0.6,0.3,1.1,0.6,1.7,0.9c0.5,0.3,1,0.6,1.5,0.8c0.9,0.5,1.4,0.7,1.4,0.5l-0.6-0.7
							c-0.8-0.3-1.6-0.6-2.2-0.8C359.2,236.9,358.6,236.6,358.1,236.4z"/>
						<path d="M444,327.9c0-0.2-0.1-0.5-0.1-0.8c-0.3-0.6-0.6-1.1-0.9-1.5C443.3,326.3,443.7,327.1,444,327.9z"/>
						<path d="M446.3,329.1l0.6,3.4C446.8,331.8,446.6,330.7,446.3,329.1z"/>
						<path d="M428.9,218.7l-0.8-1.9C428.7,219.9,428.6,218.5,428.9,218.7z"/>
						<path d="M334.9,276.5c-2.1-0.3-3.7-0.6-5.2-0.9c0.6,0.2,1.2,0.3,1.7,0.5c0.5,0.1,1.1,0.2,1.5,0.3
							C333.9,276.6,334.5,276.6,334.9,276.5z"/>
						<path d="M446.5,291.8c-0.2-1.1-0.3-1.5-0.4-1.5C446.3,291.4,446.5,292,446.5,291.8z"/>
						<path d="M324,274c0.3,0.2,0.6,0.3,1,0.5c0.7,0.2,1.5,0.4,2.2,0.6c0.8,0.1,1.6,0.4,2.5,0.5c-0.9-0.2-1.8-0.6-2.8-0.8
							C326,274.4,325,274.2,324,274z"/>
						<path d="M375.8,267.2c-0.1,0.2-0.2,0.3-0.3,0.5C375.5,267.8,375.6,267.6,375.8,267.2z"/>
						<path d="M330.7,325.9c0.4-0.6,1.2-1.5,1.9-2.4C332.3,323.9,331.7,324.6,330.7,325.9z"/>
						<path d="M381.5,267C383.1,266.5,381.7,266.9,381.5,267L381.5,267z"/>
						<path d="M389.7,266.3c-0.3,0.2-0.6,0.3-0.6,0.4C389.2,266.5,389.4,266.4,389.7,266.3z"/>
						<path d="M309.5,267.3l-0.1-0.1C309.7,267.6,309.6,267.5,309.5,267.3z"/>
						<path d="M383.9,266.4c-0.6,0.1-1.3,0.3-2.1,0.5C382.2,266.9,382.8,266.7,383.9,266.4z"/>
						<path d="M383.5,266.3c0.5-0.2,1-0.3,1.4-0.4C385.1,265.8,384.9,265.8,383.5,266.3z"/>
						<path d="M379.3,267.7c0.9-0.3,1.8-0.5,2.6-0.7c-0.3,0.1-0.5,0.1-0.4,0C381,267.1,380.4,267.4,379.3,267.7z"/>
						<path d="M418.3,138.2c0,0.1-0.1,0.2-0.1,0.3C418.2,140.2,418.2,139.5,418.3,138.2z"/>
						<path d="M397.8,253.2c-0.1,0-0.1-0.1-0.2-0.1C397.7,253.1,397.8,253.2,397.8,253.2L397.8,253.2z"/>
						<path d="M402.6,256.8c-1.2-0.6-2-1.2-2.7-1.8s-1.4-1.1-2.1-1.8l0.8,2.2C399.9,255.8,401.3,256.3,402.6,256.8z"/>
						<path d="M436.4,257.2c0.1,1.4,0.2,2.8,0.3,4.2c-1.5-4.9-1.9-8.5-1.8-4.5c1.5,0.3,2.8,16,4.3,16.3c0.1,0.9,0.1,1.8,0.1,2.8
							c-0.1-0.8-0.2-0.9-0.3-1.7c0.1,5.4,1.5,3.8,2.4,10.6c0.2,2.4,0.3,4.1-0.1,2.5c0.4,1.7,0.7,3.5,1,5.3c0.2,1.5-0.1,1.2-0.3-0.3
							l1.1,8.1v-0.1c0.3,1.1,1,3.7,1.3,5c0,2.1-0.2-1-0.4-0.5l0.7,4.5c-0.2,1.9-0.8-1.8-1.1-4.9c-1,4.3,0.7,3.7,0.6,12.8l-0.5-4.2
							c-0.3,1.4-0.3,2.9-0.2,4.7c0,0.9,0.1,1.8,0.1,2.9c0,1,0,2.1-0.1,3.3c0.1-0.6,0.3-3,0.5-4.7s0.4-2.6,0.8-0.2
							c0,1.4,0,3.2,0.4,5.8c-0.5,0-0.3,2.6-0.1,5.8l-0.6-0.2c0.3,3.5,0.7,3.2,1,5.2c-0.1,3.9-0.6,4.7-1,5.6
							c-0.1,6.2,0.8-4.3,0.9,3.1c-0.2,2.6-0.1,4.8-0.1,7.1c-0.1,2.3,0,4.8,0,7.9c-0.4,3.6-0.4-0.7-0.6,0.6l0.3,3.2
							c-0.1,0.8-0.2,0.5-0.3,0.4c0,1.9,0.3,1.2,0.5,2.3l3.2,0.5c0-0.4,0-1.1,0.2-2.3c-0.3-0.6,0.5-2.8,0.8-5.6
							c0.5-2.7,0.7-6.1,0.2-8.8c0.1-1.3,0.4,0.6,0.7,0.2c-0.5-3.7-0.7-5.3-1.1-6.7c-0.2-0.7-0.3-1.4-0.5-2.2
							c-0.1-0.4-0.2-0.9-0.4-1.4c-0.2-0.5-0.4-1.2-0.6-1.9c-0.2-1.7-0.4-3.4-0.7-5.1c0.2,1.9-0.1,1.7-0.6,0.5
							c-0.3-0.6-0.6-1.4-1-2.3s-0.8-1.9-1.2-2.9c0.2,1.3,0.3,2.5,0.4,3.2l-0.5-1.6l-0.6-1.6l-1.2-3.1c-0.1-0.8,0.3-0.2,0.8,0.7
							c-0.2-0.4-0.4-0.8-0.5-1.1c-0.6-2.3,0.2-1.3,1.1,0.2c0.1,0.8,0.2,1.6,0.4,2.4c0.4,0.7,0.9,1.4,1.2,1.9
							c0.3,0.5,0.6,0.7,0.7,0.5c-0.2-0.4-0.5-1.2-0.8-2.1c0.2,0.4,0.4,0.6,0.4,0.4s-0.4-0.9-0.8-1.9l0.2-1.7l-0.4-0.3
							c-0.8-2.8-1.7-5.7-2.7-8.4c-3.1-5.6-6.3-10.1-11.3-18.6c1.7,1.9,1,0.1,1.6-0.1c0.7,2.7,3.9,6.7,6,11.4
							c-1.1-2.5-0.6-2.1-0.2-1.5l-2.3-4l-2.4-3.9c0.6-0.1-0.6-1.9-1.6-4.1c0,2.1-3.9-5.7-6.2-8.7c0.2-0.4,1,0.2,3.2,4.2
							c-0.9-2.4-2.1-3.6-3.2-4.8c-1.1-1.2-2.2-2.4-3.3-4.7c0.6,0.9,0.9,1.5,1.3,1.8c-1.6-2.1-5.2-7.4-4.1-6.3l0.7,0.9
							c-2.1-3.1-5.7-7.5-9.1-11s-6.6-6.1-7.3-6.2c0-0.1,1.4-0.1,1.8,0.1c-1.9-1.2-3.9-2.3-5.9-3.4s-4-2-6-3c0.7,0.1,0.4-0.9,0.6-1.5
							s0.9-0.8,3.4,1c-0.7-0.6-1.4-1.3-2.4-2s-2.2-1.6-3.8-2.6c0.9,0.8,1.8,2.6,0.4,1.7c-1.6-1.7-2.2-2.2-2.9-2.8
							c-0.4-0.3-0.7-0.6-1.3-1.1c-0.6-0.5-1.3-1.1-2.4-2c1.5,1.1-0.9,1-3.3-0.5c0.5,0.1,0.4-1.1,1.3-0.7l-1.7-0.7l-1.7-0.6l-3.4-1.2
							c1.6,0.7,0.7-0.7-0.6-1.7c0.3,0.3-1.1-0.4-2.8-1.3c-1.7-0.9-3.7-1.7-4.6-2.1l2.7,1.5c-1.8-0.8-3.2-1.4-4.4-1.8
							c-1.2-0.3-2.2-0.5-3.2-0.7s-2-0.3-3.2-0.6c-1.2-0.2-2.7-0.6-4.5-1.3c1,0.1,2.7-0.6-1.1-2c-2,0-8.7,0.3-15.5,0.2l-1.3-0.4
							c-1.8,0-3.5,0.1-5.2,0.3c1.6-0.5,4.7-1.2,8.2-1.4c3.5-0.3,7.2-0.1,9.9,0.2c-2.9-0.9-0.7-0.6-5.2-1.5c-0.8-0.3-0.1-0.3,0.9-0.2
							s2.4,0.4,3,0.5c-3.5-0.9-7-1.5-10.7-1.9c0.2,0.4-1.9,0.3-4,0.5c-2.1,0.1-4.2,0.5-3.9,0.7c3.9-0.6,7.8-0.6,11.7-0.3
							c0.3,0.8-6.9,0.7-14.3,1.7c-1,0-0.7-0.3-0.1-0.7c0.5-0.4,1.3-0.7,1.2-0.8c-0.5,0.2-2.3,0.5-4,0.9c-0.4,0.1-0.9,0.2-1.3,0.3
							s-0.8,0.2-1.1,0.3c-0.7,0.2-1.2,0.3-1.4,0.4c0.5-0.3,1-0.4,1.5-0.7c0.5-0.2,1-0.4,1.6-0.6c-2.2,0.4-3.8,1.2-5.5,2.1
							c-1.7,0.9-3.4,1.9-5.7,3.1c-0.8,0.5-2,1.1-3,1.7c-1,0.6-1.8,1.3-1.8,1.5c2.8-1.5,4.6,0.1,3.6,1.7c-0.2,0.2-2,1.4-3.5,3.1
							c-0.4,0.4-0.8,0.9-1.2,1.3c-0.4,0.5-0.7,0.9-1,1.3c-0.6,0.9-1.1,1.6-1.3,2c-0.8,1.2-0.8,0.1-0.6-1.1c0.2-1.2,0.4-2.5-0.4-1.4
							c0.1,0.2-0.4,1.8-0.6,2.4c-0.4,0.9-0.5,0.6-0.6,0.7c-0.1,0-0.4,0.4-0.8,2.4c0.2,0.8-0.5,8.5,0.3,2c0,1-0.1,1.8,0,2.4
							c0,0.7,0.1,1.2,0.1,1.8s0.1,1.2,0.3,1.9c0.1,0.4,0.1,0.8,0.3,1.2c0.1,0.4,0.3,0.9,0.5,1.5c0-0.4,0.1-0.4,0.4-0.1
							s0.7,0.9,1.2,1.6c1,1.4,2.5,3.1,3.7,4.5c-0.3-0.1,0.1,0.7,0.3,1.1c2.6,2.9,5,4.8,7.4,6.5c2.5,1.6,5.1,2.9,8.6,4
							c0.6,0.4,4,1.3,2.5,1.3c0.5,0.1,1.1,0.1,1.7,0.1c0.7,0,1.5,0.1,2.6,0.2c2.2,0.5,0.9,0.4-0.5,0.3s-2.9-0.4-1.3,0.3
							c0.2-0.2,1.7-0.1,3.5-0.1c1.9,0,4.1,0,5.7-0.2c-0.3-0.1-0.8-0.2-1.6-0.3c-0.8,0-1.8,0-2.9-0.1c-2.1,0-4.6-0.2-6.2-0.3
							c0.2-0.9,5.8-0.5,13.2-1.5c1.5-0.1,2.4-0.2,2.9-0.3c0.5,0,0.7,0,0.7,0.1s-0.5,0.4,0,0.2c2.8-0.3,4.7-0.7,6.3-1.1
							c1.5-0.4,2.6-0.8,3.6-1.2c2-0.8,3.8-1.4,8.4-2.3c3.7-0.4,0.4,1,1.3,1.2c-4.7,1.5-7.4,1.6-10.6,2.3c1.3-0.2,2.7-0.4,4-0.7
							c-1.5,0.5-4.6,1.4-6.4,1.6c1.6,0,6.3-1,11.6-2.4c5.3-1.4,11.3-3.1,15.5-4.1c1.4-0.6,3.9-1.6,2.7-1.4c-0.9,0.3-1.7,0.6-2.6,0.9
							c-1.3,0.1-0.1-0.4,1-0.8c1.1-0.5,2.1-0.9,0.4-0.4c3.5-1.4,7.3-3,12.3-4.4l1.1,0.3c-0.2-0.1-3.4,0.7-4.7,1.3
							c2-0.9,7.9-1.7,9.9-3.2l-3.6,0.7c3.4-1.4,7.6-3.5,12-4.8c-2.2,0.1-1,0.4-4.3,0.8c3,0-11.2,3.6-6.6,3.1
							c-3.5,0.3-5.6,1.5-10.1,2.1c0.2,0.2,1.6-0.1-2.1,1c-0.1,0.1-0.5,0.3-0.8,0.4c-0.1,0-0.2,0-0.3,0.1c0.1,0,0.1,0,0.2,0
							c-0.2,0.1-0.2,0.1,0.1,0c0.9-0.2,1.7-0.3,2-0.3c-0.8,0.5-2.7,1.2-4.7,1.9c-1.9,0.7-3.9,1.3-4.9,1.7c-2.2,0.5,0.9-0.5-0.4-0.4
							l-2.9,1.2c-0.4-0.3-6.1,0.9-0.9-0.8c-1.6,0.4-3.1,0.9-4.7,1.3c-2.8,0.5-6.7,1.4-8.9,2.2c-2.2,0.4-5.5,1.7-3.6,1
							c-2.4,0.6-4.9,1.2-7.3,1.6l-0.1-0.1c-3.6,0.5-7.4,1-11.2,1c-3.8,0-7.9-0.6-11.5-2.2c-2.2-0.7-4.6-1.5-7.9-3.8l-0.4-0.8
							c-0.7-0.4-1.3-1-2.1-1.6c-0.4-0.3-0.7-0.7-1.1-1.1s-0.7-0.7-1.1-1.1c-0.6-0.8-1.3-1.5-1.7-2.1c-0.5-0.6-0.9-1.1-1.1-1.3
							c-0.4-1.6-2.1-4.6-2.4-8.1c0-0.4-0.1-0.9-0.1-1.3v-1.3v-0.7l0.1-0.6c0.1-0.4,0.1-0.9,0.2-1.3c0.3-1.6,1-3.1,1.6-4.1l-0.3-0.4
							c0.8-1.5,1.9-2.9,3.1-4.3c1.2-1.4,2.7-2.7,4.6-4l-0.5-0.2c1.6-1.2,3.9-2.4,6.6-3.2s5.9-1.3,9-1.5c-0.4,0.2-2,0.3-3.2,0.4
							c1.9,0,3.8-0.1,5.8-0.1s4,0,5.9,0.1c4,0.2,7.9,0.8,11.2,2.1c1.7,0.3,3,0.7,4.1,1.2c-0.2-0.1-0.3-0.1-0.4-0.1
							c0.2,0.1,0.4,0.1,0.7,0.2c0.7,0.3,1.5,0.7,2.3,1c-0.7-0.3-1.3-0.6-1.9-0.9c0.7,0.2,1.5,0.5,2.4,0.7c0.9,0.3,1.9,0.6,2.9,0.9
							l0.6,0.8c0.2,0.1,0.3,0.1,0.4,0.2c1.8,0.9,1.6,0.4,0.7-0.4c1,0.3,1.9,0.5,2.6,0.7c1.2,1.4,5,1.9,6.7,3.7
							c1.5,0.1,9.2,4.5,10.5,4.5c0,0.1,0.5,0.5-0.5-0.1c1.9,1.2,3.8,2.6,5.6,3.5l0.5,1c1.5,0.7,3,1.5,4.5,2.3c2.2,2.1,3,3.1,0.4,1.6
							c3,2,4.3,2.8,5.3,3.7c0.5,0.4,1,0.8,1.7,1.3c0.3,0.3,0.7,0.5,1.2,0.9c0.5,0.3,1,0.7,1.6,1.2l-0.5,0.1c0.8,0.8,1.9,1.6,3,2.5
							c1,0.9,1.9,1.7,2.2,2.3c1.5,2,5.5,6.6,9.6,12.3c4.1,5.7,8.1,12.8,10.9,18.5c-0.1-1.4,0.5,0,1.3,1.7c0.7,1.7,1.6,3.8,2.1,3.8
							c0.1,0.8,0.8,2.4-0.4,0.7c3.2,5.7,3.9,8.9,6.3,12.7c0,0.8-0.9-1.1-0.8-0.5c0.3,0.5,1,1.8,1.1,2.5s-0.6-0.8-1.1-1.7
							c1.3,3,2.1,4.6,2.7,5.5c0.7,0.9,1.1,1,1.6,1.1c0.4,1.6,0.6,2.9,1,3.9c0.4,1.1,0.8,2,1.4,3.1c0,1.2,0.3,3.1-0.9-0.8
							c0.1,0.6,0.4,1.7,0.7,3.1c0.2,0.7,0.4,1.4,0.5,2.2c0.2,0.8,0.3,1.6,0.5,2.4s0.3,1.6,0.5,2.3c0.1,0.7,0.2,1.4,0.3,2
							c0.2,1.1,0.4,1.9,0.6,1.9c0,0.7,0.3,3.2,0.4,3.8c0.1,1.3,0.2,2.3,0.2,3.1c0,0.8,0,1.5,0,2.2s0,1.4,0,2.2
							c0,0.8-0.1,1.8-0.2,3.1l0.2-1.4c0.3,1,0.3,2.1,0.1,3.4c-0.2,1.3-0.6,2.8-0.9,4.9l-0.1-0.1c-0.1,0.3-0.1,0.6-0.2,0.7l2.2,0.3
							c1-8.4-0.1-3.7,1.1-12.8l-0.5,0.5c-0.2-0.2-0.3-0.9-0.2-1.8c0-0.5,0.1-1,0.2-1.5c0-0.6,0.1-1.2,0.2-1.9
							c0.2-2.7,0.6-5.9,0.4-8.6l-0.3,2c-0.2-1.5,0.2-3.6,0.6-5.7s0.7-4.2,0.8-5.7c0.1-0.7,0.2,1,0.3,1.9c0.3-7.9-0.7-1-1.1-6.9
							c0.3-1.1,0.9,1.4,0.8-2.6c0.3-2-1.9-11.4-1.7-16.8c-0.2,1.2-0.3,2.4-0.7-0.3c-0.5-4.1-0.3-11.3-1.6-15c0-0.5,0.1-0.7,0.1-0.8
							c-0.6-3.1-1.8-10.2-2.5-12c0.3-0.8,0.2-2.4,0-4.4c-0.3-2-0.8-4.3-1.3-6.5c-1-4.5-1.9-8.6-1.1-8.7l-1.8-9.6l0.2,0.2
							c-1-6.2-1.8-8.3-2.5-10.4c-0.2-1.4,0.2-0.4,0.3-0.3c-1.4-9-1.6-9.9-3.8-17.3l0.3-0.9c-0.3-1-0.7-4.3-1.4-8.4
							c-0.6-4.1-1.4-9.1-2.4-13.4c0.1,0.1,0.2,0.2,0.4,0.9c-1.2-4.9-1.8-10.9-2.5-16.1c-0.7-5.2-1.2-9.6-2.4-11.2l-1.4-6.5
							c1.1,8.5-1-1.2-0.8,2.4c-0.3-1.7-0.4-3.9-0.4-5.1c0-1.3,0.2-1.6,0.5,0.5v0.7c1.1,1.4-0.9-10.6-0.2-10.5
							c-0.4-2.9-0.6-5.8-0.8-8.6c-0.2-2.9-0.4-5.7-0.6-8.6c-0.1-1.4-0.1-2.8-0.2-4.3c0-1.4-0.1-2.8-0.1-4.2
							c-0.1-2.8-0.1-5.6-0.2-8.4l-4-0.2c-0.7,5-1.3,9.9-1.9,14.7l0.9-1.7c-0.1,0.9-0.2,1.8-0.4,2.7l-0.5,2.7c-0.4,1.4-0.9,1.8-0.2-2
							c-0.7,2-0.7,6.5-0.6,6.7c-1.5,7.5-0.4-3.1-0.8-0.8L413,144l0.2-0.7c-0.1,1.3,0,2-0.1,3s-0.1,2.2-0.6,4.5
							c-0.7,2.9-0.8,1.4-1,2.6c0,0-0.2,0.4-0.4,1.8l-1.5,6.8l1.1-2.6c-0.3,3.1-1.3,6.4-0.1,3.4c-0.4,1.1-1.1,3.2-1.9,5.8
							c-0.7,2.6-1.5,5.7-2.3,8.7c-0.4,1.5-0.8,3-1.2,4.4c-0.4,1.4-0.8,2.7-1.1,3.9c-0.7,2.4-1.2,4.1-1.5,4.8
							c-0.2,1.1-0.4,2.1-0.7,3.2c-0.3,1.1-0.6,2.1-0.9,3.2c-0.7,2.2-1.5,4.4-2.3,6.9c0.5-1.2,1.4-1.7-0.1,2.5
							c-0.4-1-1.1,0.9-2.2,3.5c-1.1,2.5-2.3,5.7-3.4,7.2c0.9-1.4-0.2,1.6-1.2,4.4c-0.5,1.4-1,2.8-1.2,3.5s-0.1,0.8,0.6-0.3
							c-1.6,3.4-0.6,0-2,2.5c-3,8.5-8.3,18-13.2,28c0.1,0.2,1.2-1.3,0.3,0.9l-3.5,4.8c-1,2,0,2.3-2.5,5.5c0.4-0.4,1-1,0.3,0.3
							c-1.5,2.3-2.9,4.7-4.3,7c-1.4,2.4-2.8,4.8-4.3,7.1c-1.5,2.4-3,4.7-4.4,7.1l-2.2,3.6c-0.7,1.2-1.6,2.3-2.3,3.5l-4.7,6.9
							c-0.8,1.1-1.6,2.3-2.4,3.4l-2.6,3.3c-3.4,4.4-6.9,8.8-10.8,12.8c2.2-2.1,0.9-0.5-0.5,1.2c1-1.1,0.3,0.3,0.7,0.2l-6.4,6.8
							c-0.6,1.7-6.6,7.5-6.7,8.6l1.9-2.3c-2,3.4,4.9-3,5.2-2c0.6-1,1.4-1.9,2.4-3c0.9-1.1,2-2.2,3.2-3.3c2.3-2.4,4.7-5,6.5-8.2
							c1.2-1.1-0.6,1.2,0.1,0.7c0.8-1.7,2.1-3.5,4.7-6.7l-0.2,0.4c1.7-2.3,3.2-4.3,4.6-6.1c1.4-1.8,2.6-3.6,3.9-5.3
							c1.3-1.7,2.6-3.5,4-5.5c0.7-1,1.5-2.1,2.3-3.2c0.8-1.2,1.6-2.4,2.5-3.8l-0.9,0.6c1.5-2.3,2-2.7,2.8-3.8
							c1.1-3.1-4.2,6.6-3.3,3.7c1.4-1.3,4-5.4,6.6-9.5c2.5-4.1,4.8-8.1,5.9-8.9c2.2-3.7-1.1,0.8,1-2.9l0.8-0.8l0.2-1.1
							c1.4-2.4,2.4-3.5,2.6-3.5c-0.3,0.6-0.8,1.8-1.2,2.4c2-3.1,4.7-9.2,5.4-10.2l-2.1,3.6c5.3-10.4,11.5-23.3,15.3-34l-0.5,0.7
							c0.8-2,1.3-3.4,1.7-4.6c0.4-1.1,0.8-1.9,1.2-2.8c0.7-1.7,1.5-3.5,3.1-7.9l-0.1,0.3c0.5-1.8,1.1-4.3,2-6.7
							c-0.5,2.4,1.9-4.1,1.2-1c1.3-4.5,1.6-5.6,1.7-6.4c0-0.4,0.1-0.7,0.1-1.2c0.1-0.6,0.2-1.4,0.4-3l0.8-1.3
							c0.3-2.1,0.1-2.3,1.4-6.9c-0.8,3.8,1.4-2.7,0.6,1.5c0.9-2.3,1.5-4.4,2.1-6.2c0.4-1.9,0.8-3.5,1.1-5c0.6-3,1-5.3,2.2-7.3
							c0.1-4.7-2.6,8.2-2.2,5.7c-0.8,2,0.2-3.8,1-6.8c0.4-1.5,1-2.8,1.7-4.6s1.5-4.3,2.3-8.2c-0.2,0.8-0.1,0.8-0.3,1.6
							c0.8-2.9,0.9-5.8,1.8-9.3c-0.3-2.1,0.8-4.7,0.1-5.4l-1,7.3c0.4-4.1,0.2-8.1,1.7-14.8c0.1,0.6,0,2.6-0.1,4
							c0.3-1,0.4-1.9,0.5-2.9s0.2-1.9,0.4-3c0.3,0.3,0.2,2.6-0.3,5.2c-0.4,2.7-0.9,5.8-1,8.1c0.7-2.1,0.8-8.4,1.3-6.1
							c-0.1-0.8-0.1-1.7,0-2.7c0.1-0.5,0.1-1,0.2-1.5s0.2-1.1,0.2-1.6c0.3-2.2,0.7-4.7,0.6-7.4l0.4,0.4c0-0.9,0-2.6,0.2-4.2l0.3,2.9
							c0-1.9,0.3-3.7,0.6-5.5l-5-0.2c-0.1,2.4-0.2,4.8,0,7.2c-0.4-8.8,0.5-2,0.7-5.7c0.5,5.4,0.3,7,0,8.7c-0.1,0.9-0.3,1.8-0.4,3.2
							c0,0.7-0.1,1.6,0,2.7c0.1,1.1,0.2,2.3,0.3,3.8c-0.2-1.6-0.2-6.2,0.2-3.6c0.1,2.3,0.2,5.4,0,6.8c0.7,8,0.4-1.3,1,2.1
							c-0.3,2.8,0.5,3.9,1.1,7.4l-0.5,0.1c0.8,9.1,1.3,2.3,1.9,10.5l-1.1-3.4l0.7,4.2l-0.6-0.8c0.9,4.6,1.1,6,1.6,10.6
							c0.2-1.1,1,0.5,1.5,4.5c0.1,2.8-0.7-1.5,0.2,4.2c-0.5-1.2-1.1-2.6-1-5.1c-0.2-0.2-0.5-1.2-0.7-1.5c0.1,3,1,7.4,1.4,9.5
							c-0.1-0.8-0.2-1.7-0.3-2.2l2,8.1c0,1.3-0.3,0.3-0.6-0.7c0.3,1.7,0.7,2.8,1.2,5.2c-0.5-0.6-0.9-0.3-1.6-3.8
							c0.6,2.6,1.1,5.2,1.8,7.7c-0.1,0.6,0.3,4.1-0.1,3.1c0.6,4.4,2.6,10.5,3.4,16.2c0.1,0.3,0.3,0.9,0.6,2.1
							c0.9,5.4,1.3,10.2,3.1,16.5v3.7c1.1,5,0-5,1.8,3.2c1.3,5.8-0.2,2.3,0,4.4c0.9,2.9,2.6,7.8,2.9,13.3
							C436.9,260.3,436.8,258.9,436.4,257.2z M444.8,318.9c-0.2-1.2-0.7-3.6-0.5-4.5C445,315.8,444.8,316.8,444.8,318.9z
							 M441.9,318.8c0.5,0.8,0.9,2.1,1.2,3.7C442.7,321.5,442.3,320.2,441.9,318.8z M364.2,272.3c0,0-0.1,0-0.1,0.1
							C361.4,272.8,362.3,272.7,364.2,272.3z M369.6,271c0.5-0.2,0.5-0.3,0.2-0.3c-0.3,0.2-1.6,0.6-2.9,0.9
							C367.3,271.7,368,271.6,369.6,271z M412.1,155.1l0.3-1C412.1,156.5,412.1,155.8,412.1,155.1z"/>
						<path d="M446,329c0,0.4-0.1,0.5-0.1,0.6C446.1,330,446.2,330,446,329z"/>
						<path d="M429,219v-0.2c0-0.1-0.1-0.1-0.1-0.2L429,219z"/>
						<path d="M303.2,245.8c0.5-1.2,0.9-1.7,1.2-2.1c0-0.1-0.1,0-0.3,0.3C303.8,244.3,303.5,244.9,303.2,245.8z"/>
						<path d="M397.7,261.6l-3.4,1.2c1.6-0.6,2.3-0.7,3.1-0.9C397.4,261.9,396.7,262,397.7,261.6z"/>
						<path d="M428.2,254.4c0.5-0.2,1-0.4,1.5-0.6l-0.2-0.2C427.4,254.4,426,255.1,428.2,254.4z"/>
						<path d="M401.4,262.1c0.4,0.3,2.5-0.5,4.9-1.4c-0.1,0-0.3,0.1-0.4,0.1C406.3,260.1,403.9,261.1,401.4,262.1z"/>
						<path d="M406.8,260.5c0.7-0.3,1.5-0.5,2.2-0.8C409.2,259.4,408.1,260,406.8,260.5z"/>
						<path d="M376.4,268.8c1.2-0.2,0.6-0.7,1.3-0.7C378.8,267.2,370.2,270.9,376.4,268.8z"/>
						<polygon points="403.8,262.8 402.7,262.6 401.5,263.4 						"/>
						<path d="M384.7,268.5l3.9-1.1c-0.1-0.1,0.4-0.3,1-0.5C387.2,267.6,384.6,268.3,384.7,268.5z"/>
						<path d="M389.6,266.9c1.2-0.4,2.4-0.7,3.1-1C392,266.1,390.5,266.6,389.6,266.9z"/>
						<polygon points="398.6,264.6 397.4,264.9 394.7,265.7 						"/>
						<path d="M342.7,278.3c-1.4,0.2-2.9,0.3-4.4,0.3c-0.4,0.2,0.7,0.3,2.4,0.1C341.8,278.6,343.4,278.4,342.7,278.3z"/>
						<path d="M356.1,277.6c-1.2,0.2-1.3,0.1-2,0v0.6C354.8,278.1,355.4,277.8,356.1,277.6z"/>
						<path d="M343.3,279.8c-0.4,0.3-6.5,0.8-0.8,0.5C343,280.1,347.4,279.5,343.3,279.8z"/>
						<path d="M308.2,240.5c-0.2,0.3-0.4,0.6-0.7,0.9l0.9,0.5C308.4,241.4,308.2,240.9,308.2,240.5z"/>
						<path d="M363.6,232.9c-2.4-1.1-2.8-1-3.1-0.9c-0.3,0.1-0.5,0.1-2.7-0.8c-1.3-0.2,3.6,1.5,2.4,1.3c1.6,0.4,2.7,0.8,3.3,1
							C364.1,233.5,364.2,233.4,363.6,232.9z"/>
						<path d="M360.1,232.4c-0.5-0.1-1-0.2-1.6-0.4C359.4,232.3,359.8,232.4,360.1,232.4z"/>
						<polygon points="322.4,334.8 320.1,337.2 321.7,335.8 						"/>
						<path d="M318.8,340.1l-1,0.2l-0.9,1.9C317.3,341.6,318.3,340.4,318.8,340.1z"/>
						<path d="M444,328.2l0.2,0.2c0.1-0.5,0.1-1.3,0.1-2.9L444,328.2z"/>
						<polygon points="440.1,283.3 440.2,284.1 440.6,282.6 						"/>
						<path d="M433.1,246c0.3,1.5,0.7,3.3,1,4.8C433.3,247.5,433.7,245.4,433.1,246z"/>
					</g>
				</g>
			</g>
		</g>
	</g>
</g>
</svg>
