<svg xmlns="http://www.w3.org/2000/svg" viewBox="0 0 314.61 312.62"><defs><style>.cls-1{font-size:23.19px;font-family:BodoniSvtyTwoSCITCTT-Book, "Bodoni 72 Smallcaps";}.cls-1,.cls-3{fill:#231f20;}.cls-2{fill:#90ba94;stroke:#231f20;stroke-miterlimit:10;}</style></defs><g id="Layer_2" data-name="Layer 2"><g id="Layer_1-2" data-name="Layer 1"><text class="cls-1" transform="translate(18.62 119.92) rotate(-70.1) scale(1.09 1)"> </text><text class="cls-1" transform="translate(20.18 115.62) rotate(-68.25) scale(1.09 1)"> </text><text class="cls-1" transform="matrix(0.44, -1, 0.92, 0.4, 21.88, 111.35)"> </text><text class="cls-1" transform="translate(23.71 107.15) rotate(-64.56) scale(1.09 1)"> </text><text class="cls-1" transform="translate(25.68 103.01) rotate(-62.73) scale(1.09 1)"> </text><text class="cls-1" transform="matrix(0.53, -0.95, 0.87, 0.49, 27.77, 98.95)"> </text><text class="cls-1" transform="matrix(0.56, -0.94, 0.86, 0.51, 30, 94.93)"> </text><text class="cls-1" transform="matrix(0.59, -0.92, 0.84, 0.54, 32.34, 91.01)"> </text><text class="cls-1" transform="translate(34.82 87.15) rotate(-55.48) scale(1.09 1)"> </text><text class="cls-1" transform="translate(37.42 83.37) rotate(-53.69) scale(1.09 1)"> </text><text class="cls-1" transform="matrix(0.67, -0.86, 0.79, 0.62, 40.12, 79.69)"> </text><text class="cls-1" transform="translate(42.96 76.07) rotate(-50.13) scale(1.09 1)"> </text><text class="cls-1" transform="matrix(0.73, -0.82, 0.75, 0.66, 45.9, 72.55)"> </text><text class="cls-1" transform="matrix(0.75, -0.79, 0.73, 0.69, 48.95, 69.11)"> </text><text class="cls-1" transform="matrix(0.77, -0.77, 0.71, 0.71, 52.1, 65.79)"> </text><text class="cls-1" transform="translate(55.13 62.51) rotate(-41.12) scale(1.09 1)">A</text><text class="cls-1" transform="translate(66.28 52.71) rotate(-35.25) scale(1.09 1)">N</text><text class="cls-1" transform="translate(79.51 43.33) rotate(-29.16) scale(1.09 1)">N</text><text class="cls-1" transform="matrix(0.99, -0.47, 0.43, 0.9, 93.86, 35.55)"> </text><text class="cls-1" transform="translate(97.78 33.45) rotate(-21.36) scale(1.09 1)">K</text><text class="cls-1" transform="translate(113.13 27.48) rotate(-15.61) scale(1.09 1)">R</text><text class="cls-1" transform="translate(127.24 23.66) rotate(-11.49) scale(1.09 1)">I</text><text class="cls-1" transform="translate(134.75 22.05) rotate(-7.82) scale(1.09 1)">S</text><text class="cls-1" transform="translate(146.92 20.32) rotate(-2.95) scale(1.09 1)">T</text><text class="cls-1" transform="translate(161.45 19.68) rotate(1.03) scale(1.09 1)">I</text><text class="cls-1" transform="translate(169.12 19.64) rotate(5.35) scale(1.09 1)">N</text><text class="cls-1" transform="translate(185.28 21.18) rotate(10.95) scale(1.09 1)">E</text><text class="cls-1" transform="translate(199.48 24.08) rotate(14.45) scale(1.09 1)"> </text><text class="cls-1" transform="translate(203.85 25.04) rotate(17.96) scale(1.09 1)">E</text><text class="cls-1" transform="translate(217.54 29.51) rotate(22.92) scale(1.09 1)">S</text><text class="cls-1" transform="matrix(0.96, 0.51, -0.47, 0.88, 228.87, 34.23)">T</text><text class="cls-1" transform="matrix(0.91, 0.6, -0.55, 0.83, 241.66, 40.98)">A</text><text class="cls-1" transform="translate(254.07 49.15) rotate(38.96) scale(1.09 1)">R</text><text class="cls-1" transform="matrix(0.8, 0.75, -0.68, 0.73, 265.35, 58.42)">I</text><text class="cls-1" transform="translate(271.02 63.62) rotate(47.02) scale(1.09 1)">S</text><ellipse class="cls-2" cx="162.55" cy="166.03" rx="151.56" ry="146.09"/><path class="cls-3" d="M304.38,133.25c1.48-.22.89-.54,1.1-.66C303,133.11,304.46,133.34,304.38,133.25Z"/><polygon class="cls-3" points="280.27 138.94 280.66 138.68 277.22 139.94 280.27 138.94"/><path class="cls-3" d="M257.92,144.75c2.29.08,8-2.32,12.07-3.16h.7l1.66-1c-2.43.6-5.15,1.54-7.73,2.3S259.64,144.35,257.92,144.75Z"/><path class="cls-3" d="M245.68,146.79c.81.05-2.48,1,2.78-.75l-.52.08Z"/><path class="cls-3" d="M247.94,146.12c2.33-.71-1.6.23,0,0Z"/><path class="cls-3" d="M237.26,149.65l3-1.21c-.68.05-3.42.88-2.44.44C234.7,150,235.4,150,237.26,149.65Z"/><path class="cls-3" d="M234.53,151.07l1.55-.61A3.76,3.76,0,0,0,234.53,151.07Z"/><path class="cls-3" d="M239.37,149.18l-3.29,1.28c.48,0,.59.18,1.51-.56C237.38,150.18,238,149.78,239.37,149.18Z"/><path class="cls-3" d="M241.3,148.69c1.76-.4,4-1,1,.2C248.12,146.94,247.11,146.74,241.3,148.69Z"/><path class="cls-3" d="M257,145.8c.79-.16,1.57-.33,2.36-.48l1.93-.77a26.57,26.57,0,0,1-2.59.68C257.73,145.49,256.9,145.71,257,145.8Z"/><path class="cls-3" d="M218.23,155.63c-.14.21,1.15,0,1.44.13l2.17-.93C220.66,155.13,218.46,155.79,218.23,155.63Z"/><path class="cls-3" d="M219.67,155.76l-3.26,1.41C219.4,156.16,219.91,155.86,219.67,155.76Z"/><path class="cls-3" d="M234.24,152c1.77-.79,3.57-1.52,5.36-2.29-2.14.88-4.3,1.73-6.42,2.66Z"/><polygon class="cls-3" points="205.48 160.06 207.25 159.06 204.06 160.75 205.48 160.06"/><path class="cls-3" d="M197.06,163.1c1.3-.77-2.07.22-.66-.47a60.29,60.29,0,0,0-5.82,2.63A46.14,46.14,0,0,1,197.06,163.1Z"/><path class="cls-3" d="M187.74,166.62c.9-.39,1.83-.86,2.84-1.36C189.61,165.68,188.66,166.12,187.74,166.62Z"/><path class="cls-3" d="M210.7,159.07a8.25,8.25,0,0,0-2.77.51l1.46-.06Z"/><path class="cls-3" d="M209.44,159.52h-.05l-2.84,1Z"/><path class="cls-3" d="M211,159l-.33.12A.45.45,0,0,0,211,159Z"/><path class="cls-3" d="M225.33,154.57c-1.91.87-5.9,2.55-1.83,1.52C224.82,155.33,222.48,155.9,225.33,154.57Z"/><path class="cls-3" d="M212.84,158.89l3.57-1.13c-.1-.09-.8,0,.14-.47Z"/><polygon class="cls-3" points="211.15 159.62 212.84 158.89 211.51 159.31 211.15 159.62"/><path class="cls-3" d="M193.92,164.84c-1.46.72-3.13,1.33-5,2,2.05-.64,4.15-1.34,6.13-2.05C195.29,164.6,196.08,164.06,193.92,164.84Z"/><path class="cls-3" d="M201.47,162.28l-.34.15C201.36,162.39,201.53,162.34,201.47,162.28Z"/><path class="cls-3" d="M170.36,173.43l.33,0,0-.1Z"/><path class="cls-3" d="M195.42,164.78a17.06,17.06,0,0,0,3.24-1.32c-1.12.44-2.32.9-3.61,1.36C195,164.92,194.94,165,195.42,164.78Z"/><path class="cls-3" d="M182.63,168.65c.82-.2,1.74-.44,2.71-.71A12.53,12.53,0,0,0,182.63,168.65Z"/><path class="cls-3" d="M200.58,162.5l.22-.1C200.27,162.49,200.35,162.51,200.58,162.5Z"/><path class="cls-3" d="M200.58,162.5c-.76.33-1.34.65-1.92,1,.91-.36,1.75-.71,2.47-1A4.14,4.14,0,0,1,200.58,162.5Z"/><path class="cls-3" d="M165.63,178c.15-.45,4-2.21,7.61-3,3.3-1.47.65-1.92-2.55-1.57-.05.2,0,.35-3.41,1.79,1.29-.22,7.91-2.23,5.09-.86-4.57,1.81-3.84,1.19-6.16,1.78,2.08-.18-5.67,2.7-4.43,3l4-1.63C165.89,177.6,164.47,178.27,165.63,178Z"/><path class="cls-3" d="M177.35,171.11l1.42-.56a46.55,46.55,0,0,1-5.14,1.24c-2.33,1-2.78,1.33-2.9,1.51l7.09-2.42Z"/><path class="cls-3" d="M185.22,168.26c-1,.8-4.37,2.2-2.1,1.89,4.2-1.53,2.83-1.39,5.29-2.46-6.77,2.52,1.87-.92-3.13.6,1.32-.55,2.51-1,3.64-1.42-1.24.39-2.45.75-3.58,1.07l.16,0,0,0h0c.31-.05.42-.05.08,0l-.14.06a.91.91,0,0,1-.26.27c-2,.61-.34,0,.26-.27,0,0,.06-.06.06-.09h0l-6.73,2.64C180.23,170.09,182,169.44,185.22,168.26Z"/><path class="cls-3" d="M220.15,158.22c-.22,0-.22,0-.25,0C219.48,158.41,219.32,158.5,220.15,158.22Z"/><path class="cls-3" d="M217.26,159a11,11,0,0,1,2.46-1c1.45-.36.06.2.18.3.94-.44,3.31-1.46.19-.61l-.47.22a32.54,32.54,0,0,1-6.05,1.31A14,14,0,0,0,217.26,159Z"/><path class="cls-3" d="M201.06,163.74l-5.6,2.22,3-.68-.22-.16C201.51,164.05,200.72,164,201.06,163.74Z"/><polygon class="cls-3" points="169.65 173.46 170.25 172.76 167.18 174.52 169.65 173.46"/><polygon class="cls-3" points="162.28 176.06 162.43 175.59 160.55 176.48 162.28 176.06"/><path class="cls-3" d="M192.22,205.94l-.37-1.73C192,205,192.12,205.56,192.22,205.94Z"/><path class="cls-3" d="M193.76,218.59l.23.29C193.81,218.31,193.71,218.08,193.76,218.59Z"/><path class="cls-3" d="M109,155l1.7.88,1.48.84c.86.48,1.43.73,1.37.47l-.56-.68c-.84-.28-1.57-.56-2.22-.82S109.49,155.19,109,155Z"/><path class="cls-3" d="M194.94,246.45l-.1-.76-.92-1.53C194.22,244.85,194.57,245.63,194.94,246.45Z"/><path class="cls-3" d="M197.19,247.69l.61,3.42C197.7,250.33,197.51,249.24,197.19,247.69Z"/><path class="cls-3" d="M179.79,137.24l-.82-2C179.57,138.46,179.53,137,179.79,137.24Z"/><path class="cls-3" d="M85.79,195c-2.11-.29-3.75-.61-5.19-.88l1.74.48c.54.14,1,.24,1.51.34A3.56,3.56,0,0,0,85.79,195Z"/><path class="cls-3" d="M197.44,210.33c-.21-1.07-.35-1.52-.45-1.48C197.2,210,197.36,210.57,197.44,210.33Z"/><path class="cls-3" d="M74.89,192.55a6.86,6.86,0,0,0,1,.46c.73.18,1.45.42,2.22.59s1.58.37,2.5.53c-.91-.24-1.81-.58-2.78-.8S75.87,192.8,74.89,192.55Z"/><path class="cls-3" d="M126.7,185.79l-.31.49C126.41,186.36,126.53,186.13,126.7,185.79Z"/><path class="cls-3" d="M81.63,244.45c.44-.57,1.19-1.49,1.89-2.36C83.15,242.49,82.58,243.2,81.63,244.45Z"/><path class="cls-3" d="M132.38,185.55c1.57-.52.23-.13,0,0Z"/><path class="cls-3" d="M140.57,184.82c-.32.15-.56.29-.57.4A1.52,1.52,0,0,1,140.57,184.82Z"/><path class="cls-3" d="M60.39,185.84l-.1-.11C60.56,186.15,60.51,186.08,60.39,185.84Z"/><path class="cls-3" d="M134.81,185c-.61.13-1.3.3-2.06.5C133.09,185.43,133.72,185.28,134.81,185Z"/><path class="cls-3" d="M134.43,184.91l1.39-.39C136,184.39,135.81,184.4,134.43,184.91Z"/><path class="cls-3" d="M130.18,186.23l2.57-.73c-.31.07-.45.09-.37.05C131.92,185.69,131.27,185.92,130.18,186.23Z"/><path class="cls-3" d="M169.23,56.74l-.1.35C169,58.77,169.13,58,169.23,56.74Z"/><path class="cls-3" d="M148.68,171.71l-.17-.1.19.17Z"/><path class="cls-3" d="M153.52,175.37a18.62,18.62,0,0,1-2.71-1.81c-.74-.57-1.39-1.13-2.11-1.78l.76,2.21C150.83,174.41,152.16,174.9,153.52,175.37Z"/><path class="cls-3" d="M187.28,175.77c.13,1.39.23,2.79.33,4.18-1.46-4.85-2-8.48-1.77-4.52,1.49.34,2.83,15.95,4.28,16.31.07.92.1,1.84.14,2.76-.1-.78-.2-.89-.3-1.67.13,5.39,1.55,3.78,2.36,10.63.25,2.39.3,4.08-.1,2.48.39,1.75.7,3.5,1,5.26.16,1.55-.12,1.2-.28-.34l1.08,8.08,0-.06c.34,1.13,1,3.72,1.26,5,0,2.08-.23-1-.36-.48l.71,4.47c-.2,1.86-.84-1.84-1.07-4.94-1,4.32.66,3.7.65,12.82l-.54-4.23a21.3,21.3,0,0,0-.19,4.69c0,.88.09,1.83.09,2.86s0,2.13-.1,3.34c.08-.58.33-3,.5-4.66s.42-2.59.8-.16a40.68,40.68,0,0,0,.41,5.82c-.48,0-.25,2.61-.08,5.83l-.65-.2c.32,3.47.67,3.18,1,5.23-.08,3.88-.58,4.68-1,5.59-.14,6.2.81-4.28.89,3.06-.15,2.58-.09,4.78-.12,7.1s-.05,4.78,0,7.87c-.44,3.6-.36-.65-.62.63l.32,3.23c-.06.78-.2.52-.27.38,0,1.94.33,1.25.47,2.29l3.19.47a15.34,15.34,0,0,1,.17-2.31c-.28-.65.46-2.79.84-5.55a25.7,25.7,0,0,0,.23-8.78c.08-1.35.44.62.66.2-.54-3.71-.73-5.29-1.09-6.68-.16-.7-.32-1.35-.54-2.2-.11-.42-.23-.9-.37-1.45l-.62-1.88c-.22-1.71-.37-3.44-.72-5.12.25,1.89-.07,1.69-.64.53-.29-.57-.64-1.39-1-2.3s-.77-1.93-1.21-2.89c.2,1.32.27,2.47.37,3.23l-.5-1.58-.58-1.56-1.16-3.11c-.15-.79.26-.23.85.73L193.4,243c-.58-2.31.22-1.29,1.08.23.12.82.24,1.63.36,2.42a20.56,20.56,0,0,0,1.23,1.9c.34.48.61.72.74.5-.17-.41-.48-1.19-.8-2.07.23.39.41.63.41.42a10.19,10.19,0,0,0-.84-1.88l.21-1.68-.38-.27c-.84-2.82-1.67-5.67-2.69-8.43-3.1-5.58-6.3-10.1-11.32-18.64,1.65,1.9,1,.06,1.62-.13.74,2.69,3.88,6.68,6,11.43-1.11-2.47-.6-2.05-.2-1.48l-2.31-4-2.4-4c.55-.06-.59-1.91-1.59-4.12,0,2.07-3.93-5.67-6.19-8.67.15-.36.95.2,3.19,4.19a14.4,14.4,0,0,0-3.15-4.84,18.4,18.4,0,0,1-3.33-4.66,7.27,7.27,0,0,0,1.29,1.75c-1.6-2.09-5.19-7.39-4.07-6.34l.66.91a91.42,91.42,0,0,0-9.09-11.05c-3.41-3.51-6.6-6.08-7.27-6.16a3.7,3.7,0,0,1,1.85.11c-1.91-1.23-3.93-2.28-5.89-3.38s-4-2-6-3c.69,0,.4-.93.58-1.51s.87-.79,3.41,1c-.67-.59-1.39-1.28-2.38-2s-2.23-1.59-3.82-2.6c.93.81,1.82,2.64.45,1.72a28.15,28.15,0,0,0-2.91-2.76l-1.31-1.07c-.57-.47-1.3-1.11-2.42-2,1.47,1.08-.87,1-3.28-.5.47.09.37-1.1,1.33-.66l-1.68-.68-1.7-.61-3.39-1.21c1.64.68.74-.73-.57-1.71.29.26-1.1-.42-2.78-1.27s-3.72-1.72-4.61-2.08l2.68,1.46a34.8,34.8,0,0,0-4.45-1.75,29.44,29.44,0,0,0-3.21-.67c-1-.15-2-.35-3.2-.59a36.5,36.5,0,0,1-4.52-1.26c1,.1,2.72-.65-1.14-2-2,0-8.68.31-15.47.17l-1.28-.43a50.46,50.46,0,0,0-5.23.32A37,37,0,0,1,91.83,148a55.3,55.3,0,0,1,9.85.16c-2.91-.94-.72-.63-5.24-1.49-.77-.3-.13-.31.87-.21s2.36.36,3,.51a69.8,69.8,0,0,0-10.67-1.87c.22.36-1.87.34-4,.51s-4.17.47-3.94.73a54.14,54.14,0,0,1,11.73-.3c.35.78-6.88.69-14.27,1.68-1,0-.66-.33-.12-.72s1.31-.74,1.22-.85c-.49.17-2.29.5-4,1l-1.27.33-1.14.33c-.69.19-1.2.34-1.38.37.5-.26,1-.44,1.53-.66s1-.42,1.56-.59a17.28,17.28,0,0,0-5.47,2.06c-1.67.88-3.36,1.87-5.71,3-.77.47-2,1.12-3,1.75s-1.81,1.26-1.77,1.53c2.77-1.53,4.57.12,3.63,1.69a26.83,26.83,0,0,0-3.54,3.14c-.38.44-.79.87-1.15,1.31s-.7.91-1,1.33c-.56.87-1.08,1.59-1.31,2-.76,1.19-.76.1-.63-1.1s.45-2.46-.35-1.42a16.69,16.69,0,0,1-.56,2.44c-.41.86-.47.63-.61.67s-.36.37-.79,2.44c.22.79-.49,8.49.29,2,0,1-.07,1.78,0,2.44s.07,1.22.09,1.8a22.38,22.38,0,0,0,.52,3.15l.5,1.5c0-.4.15-.37.43-.06s.7.87,1.22,1.55c1,1.41,2.53,3.12,3.74,4.53-.28,0,.09.74.3,1.11a35.68,35.68,0,0,0,7.39,6.46,31.78,31.78,0,0,0,8.6,4c.58.4,4.05,1.35,2.49,1.31.54.08,1.06.05,1.73.09s1.47.12,2.61.21c2.16.53.9.42-.51.31s-2.93-.37-1.31.27a15.82,15.82,0,0,1,3.52-.06,54,54,0,0,0,5.67-.21A4.71,4.71,0,0,0,89,198c-.8,0-1.79,0-2.86-.06-2.14,0-4.57-.17-6.2-.33.17-.86,5.77-.52,13.16-1.46,1.47-.15,2.36-.23,2.9-.26s.71,0,.73.1-.51.37,0,.25a38.49,38.49,0,0,0,6.26-1.13,36.39,36.39,0,0,0,3.61-1.19,42.89,42.89,0,0,1,8.43-2.34c3.73-.44.43,1,1.33,1.15-4.69,1.46-7.38,1.55-10.61,2.27,1.35-.2,2.7-.42,4-.66a32.18,32.18,0,0,1-6.43,1.56,75.72,75.72,0,0,0,11.58-2.4c5.32-1.36,11.25-3.1,15.53-4.07,1.44-.58,3.94-1.57,2.67-1.4-.87.31-1.75.59-2.63.86-1.28.14-.07-.36,1-.8s2.08-.86.38-.44a97.7,97.7,0,0,1,12.32-4.38l1.12.28a20.23,20.23,0,0,0-4.7,1.3c2-.86,7.86-1.66,9.88-3.15l-3.6.73a117.38,117.38,0,0,1,12-4.8c-2.18.11-1,.41-4.31.8,3,0-11.23,3.63-6.6,3.1-3.45.26-5.64,1.49-10.05,2.09.19.15,1.6-.09-2.13,1a8.08,8.08,0,0,1-.75.42l-.26.06.21,0c-.15.08-.16.09.08,0a10.29,10.29,0,0,1,2-.29,32.85,32.85,0,0,1-4.67,1.89c-1.92.68-3.9,1.27-4.86,1.68-2.24.54.86-.49-.41-.35l-2.89,1.2c-.42-.35-6.06.95-.94-.79-1.56.43-3.11.89-4.68,1.3a79.47,79.47,0,0,0-9,2.17c-2.23.45-5.47,1.75-3.62,1q-3.64,1-7.31,1.64l-.09-.1a81.7,81.7,0,0,1-11.23,1A28.6,28.6,0,0,1,75.88,193,24.74,24.74,0,0,1,68,189.23l-.42-.76a17,17,0,0,1-2.12-1.64,13.7,13.7,0,0,1-1.1-1.06c-.36-.37-.75-.72-1.06-1.11-.64-.77-1.27-1.47-1.71-2.1a11.8,11.8,0,0,0-1.09-1.28c-.42-1.58-2.1-4.6-2.41-8.09l-.14-1.31.05-1.32v-.65l.1-.65a8.59,8.59,0,0,1,.22-1.25A14.05,14.05,0,0,1,60,163.88l-.34-.41a24.44,24.44,0,0,1,3.14-4.26,26.38,26.38,0,0,1,4.57-4l-.47-.22a20,20,0,0,1,6.62-3.22,42.68,42.68,0,0,1,9-1.5,17.22,17.22,0,0,1-3.16.36l5.8-.13c2,0,3.95,0,5.94.08a37.14,37.14,0,0,1,11.23,2.07,17.29,17.29,0,0,1,4.11,1.22,3.31,3.31,0,0,0-.42-.11l.69.23,2.26,1c-.67-.34-1.32-.65-1.89-.89l2.38.75c.9.26,1.89.55,2.86.88l.64.77.44.15c1.79.88,1.58.37.72-.35,1,.3,1.91.52,2.62.72,1.18,1.37,5,1.87,6.65,3.66,1.48.12,9.19,4.54,10.52,4.46,0,.13.5.49-.46-.08,1.94,1.23,3.76,2.6,5.61,3.54l.46,1c1.51.73,3,1.51,4.52,2.27,2.19,2.14,3,3.12.37,1.61a57.09,57.09,0,0,1,5.28,3.69c.53.41,1,.8,1.72,1.31l1.2.87,1.6,1.22-.49.08c.8.76,1.93,1.65,2.95,2.51a12.7,12.7,0,0,1,2.21,2.33c1.46,2,5.52,6.58,9.62,12.33a140.62,140.62,0,0,1,10.93,18.52c-.09-1.37.52,0,1.27,1.69s1.58,3.77,2.1,3.79c.1.78.78,2.42-.39.71,3.15,5.67,3.87,8.9,6.27,12.72,0,.79-.9-1.12-.8-.45a10.68,10.68,0,0,1,1.1,2.48c.1.67-.57-.79-1.07-1.68a30.61,30.61,0,0,0,2.75,5.52,2.35,2.35,0,0,0,1.6,1.1,40.66,40.66,0,0,0,1,4,27,27,0,0,0,1.38,3.11c.05,1.2.27,3.14-.86-.79.14.56.41,1.69.74,3.08.16.7.38,1.45.53,2.24s.32,1.6.47,2.4l.49,2.3.34,2c.22,1.14.43,1.9.6,1.94a36.61,36.61,0,0,0,.4,3.8c.07,1.28.18,2.27.18,3.12s0,1.54,0,2.24v2.21c0,.84-.12,1.8-.19,3.06l.21-1.38a8.37,8.37,0,0,1,.13,3.39c-.19,1.3-.61,2.83-.87,4.86l-.06-.13-.17.73,2.16.32c1-8.4-.07-3.67,1.09-12.75l-.51.49c-.24-.23-.29-.86-.24-1.77,0-.45.1-1,.16-1.55s.1-1.2.16-1.87a58.8,58.8,0,0,0,.39-8.63l-.29,2a21.25,21.25,0,0,1,.62-5.68,33.47,33.47,0,0,0,.75-5.72c.07-.65.19,1,.3,1.95.27-7.9-.67-1-1.07-6.86.29-1.1.92,1.36.81-2.6.32-2-1.95-11.35-1.73-16.77-.16,1.21-.32,2.4-.75-.29-.47-4.14-.32-11.31-1.56-15,0-.54.05-.75.11-.78-.59-3.13-1.83-10.19-2.53-12a11.27,11.27,0,0,0,0-4.38c-.29-2-.8-4.3-1.28-6.53-1-4.47-1.9-8.56-1.14-8.66l-1.82-9.61.2.23a47.4,47.4,0,0,0-2.54-10.37c-.17-1.44.17-.43.27-.32-1.39-9-1.62-9.91-3.78-17.28l.34-.88c-.33-1-.75-4.26-1.36-8.38s-1.35-9.06-2.43-13.41a2.19,2.19,0,0,1,.39.93c-1.19-4.89-1.78-10.89-2.46-16.06s-1.18-9.55-2.36-11.25l-1.39-6.5c1.09,8.52-1-1.16-.75,2.38a28.56,28.56,0,0,1-.41-5.11c0-1.25.17-1.57.45.48v.66c1.11,1.39-.9-10.63-.24-10.47-.39-2.88-.59-5.77-.8-8.64s-.4-5.72-.6-8.56c-.12-1.42-.13-2.84-.17-4.25l-.1-4.23c-.06-2.81-.13-5.6-.19-8.38l-4-.16c-.67,5-1.32,9.89-1.92,14.75l.94-1.71c-.12.91-.21,1.83-.36,2.73l-.47,2.71c-.4,1.4-.87,1.83-.21-2a20.14,20.14,0,0,0-.58,6.69c-1.52,7.53-.36-3.1-.75-.78l-.46,3.16.2-.69c-.06,1.3,0,2-.07,3a25.8,25.8,0,0,1-.65,4.52c-.74,2.9-.75,1.42-1,2.56-.05,0-.16.37-.39,1.76l-1.45,6.77,1.12-2.59c-.34,3.07-1.34,6.38-.06,3.38-.45,1.11-1.14,3.21-1.88,5.8s-1.52,5.67-2.28,8.69c-.35,1.52-.78,3-1.19,4.41s-.79,2.74-1.14,3.92c-.69,2.36-1.23,4.15-1.51,4.81-.2,1.07-.42,2.12-.67,3.18s-.6,2.1-.93,3.18c-.68,2.16-1.45,4.41-2.32,6.9.53-1.2,1.4-1.74-.13,2.55-.38-1-1.13.93-2.17,3.47a47.4,47.4,0,0,1-3.45,7.23c.89-1.41-.23,1.61-1.23,4.43-.48,1.42-1,2.76-1.22,3.48s-.09.81.63-.29c-1.6,3.45-.56,0-2,2.54-3,8.53-8.28,18.05-13.23,28,.07.23,1.18-1.3.3.94l-3.52,4.79c-1,2,0,2.31-2.5,5.51.41-.41,1-1,.34.27-1.46,2.31-2.89,4.65-4.31,7s-2.75,4.79-4.28,7.1l-4.43,7.08-2.21,3.56c-.74,1.19-1.56,2.32-2.34,3.49l-4.74,6.93c-.8,1.15-1.58,2.32-2.41,3.44l-2.56,3.33A153.81,153.81,0,0,1,84,240.85c2.16-2.11.92-.54-.51,1.24,1-1.1.31.3.68.23l-6.38,6.76c-.62,1.7-6.55,7.48-6.72,8.63L73,255.43c-2,3.43,4.87-3,5.23-2a17.78,17.78,0,0,1,2.36-3c.93-1.05,2-2.15,3.15-3.33A42.31,42.31,0,0,0,90.24,239c1.15-1.12-.62,1.25.09.72A35.33,35.33,0,0,1,95,233l-.2.43c1.71-2.32,3.2-4.29,4.6-6.11s2.58-3.55,3.87-5.27l4-5.5,2.33-3.18c.77-1.17,1.6-2.41,2.5-3.76l-.91.55a42.14,42.14,0,0,1,2.78-3.77c1.1-3.09-4.22,6.59-3.33,3.7,1.39-1.3,4-5.45,6.59-9.46s4.75-8.08,5.86-8.89c2.16-3.71-1.1.82,1-2.89L125,188l.2-1.12c1.41-2.43,2.37-3.53,2.65-3.5-.35.59-.85,1.75-1.17,2.41,2-3.06,4.69-9.16,5.38-10.22L130,179.14c5.34-10.42,11.53-23.34,15.35-34l-.55.71c.78-2,1.26-3.45,1.69-4.57s.78-1.94,1.15-2.78c.74-1.68,1.54-3.45,3.14-7.91l-.07.34c.51-1.83,1.14-4.29,2-6.73-.51,2.36,1.92-4.1,1.19-1a63.1,63.1,0,0,0,1.69-6.4l.14-1.24.43-3,.76-1.26a33.13,33.13,0,0,1,1.38-6.89c-.78,3.81,1.39-2.74.57,1.54.9-2.32,1.55-4.39,2.07-6.24s.76-3.51,1.05-5c.58-3,1-5.26,2.16-7.33.1-4.66-2.63,8.2-2.22,5.67-.84,2,.16-3.83,1-6.82a49,49,0,0,1,1.71-4.61A48.58,48.58,0,0,0,167,73.41c-.17.78-.1.85-.27,1.62.85-2.88.89-5.79,1.84-9.34-.28-2.13.8-4.7.12-5.4l-1,7.25c.45-4.14.22-8.11,1.67-14.78a23.82,23.82,0,0,1-.11,4,18.25,18.25,0,0,0,.51-2.89,19.6,19.6,0,0,1,.4-3c.34.35.2,2.57-.26,5.24a74.6,74.6,0,0,0-1,8.07c.67-2.07.79-8.4,1.27-6.06a9.74,9.74,0,0,1,0-2.7c0-.49.12-1,.21-1.51l.23-1.61a39.22,39.22,0,0,0,.64-7.44l.43.41c0-.86,0-2.64.22-4.21l.27,2.9a30.43,30.43,0,0,1,.59-5.46l-5-.21a53.61,53.61,0,0,0,0,7.17c-.36-8.81.49-2,.69-5.72.53,5.41.28,7,0,8.72a23.57,23.57,0,0,0-.38,3.23c0,.73-.08,1.59,0,2.65s.16,2.32.31,3.83c-.2-1.64-.21-6.18.21-3.63a67.39,67.39,0,0,1,0,6.81c.75,8,.39-1.27,1,2.12-.33,2.78.5,3.92,1.07,7.4l-.47.07c.75,9.14,1.28,2.31,1.86,10.53L171,78.11l.67,4.25-.65-.81a91.24,91.24,0,0,1,1.59,10.59c.18-1.1.95.47,1.54,4.48.12,2.77-.68-1.46.23,4.21a11,11,0,0,1-1-5.13c-.19-.23-.48-1.22-.67-1.46a73.73,73.73,0,0,0,1.36,9.47c-.11-.8-.24-1.75-.25-2.24l2,8.1c0,1.32-.28.32-.59-.67.33,1.66.74,2.77,1.19,5.21-.5-.57-.87-.35-1.63-3.78.59,2.58,1.13,5.17,1.76,7.74-.07.55.26,4.09-.06,3.1.55,4.36,2.65,10.47,3.44,16.24a12.5,12.5,0,0,1,.59,2.07c.93,5.39,1.35,10.23,3.07,16.49v3.74c1.09,4.95,0-5.05,1.77,3.2,1.28,5.83-.2,2.3,0,4.4a56.85,56.85,0,0,1,2.88,13.31C187.76,178.85,187.64,177.43,187.28,175.77Zm8.46,61.69c-.21-1.19-.72-3.56-.51-4.46C195.9,234.32,195.72,235.4,195.74,237.46Zm-2.93-.06a15.48,15.48,0,0,1,1.24,3.7A33.25,33.25,0,0,1,192.81,237.4Zm-77.75-46.56-.12.06C112.3,191.39,113.24,191.23,115.06,190.84Zm5.46-1.26c.52-.22.46-.27.22-.27a15.06,15.06,0,0,1-2.95.91A8.07,8.07,0,0,0,120.52,189.58ZM163,73.62l.34-1C163,75,163,74.32,163,73.62Z"/><path class="cls-3" d="M196.93,247.51a.84.84,0,0,1-.12.58C197,248.54,197.11,248.52,196.93,247.51Z"/><path class="cls-3" d="M179.94,137.6l0-.19a.45.45,0,0,0-.12-.17Z"/><path class="cls-3" d="M54.07,164.34a9.13,9.13,0,0,1,1.22-2.11c0-.06-.15,0-.35.34A9.17,9.17,0,0,0,54.07,164.34Z"/><path class="cls-3" d="M148.63,180.2l-3.37,1.23a23.58,23.58,0,0,1,3.12-.85C148.27,180.5,147.56,180.56,148.63,180.2Z"/><path class="cls-3" d="M179.08,172.93c.48-.23,1-.38,1.52-.61l-.21-.16C178.29,172.92,176.87,173.62,179.08,172.93Z"/><path class="cls-3" d="M152.28,180.7c.4.29,2.5-.53,4.86-1.42l-.42.14C157.24,178.64,154.77,179.71,152.28,180.7Z"/><path class="cls-3" d="M157.69,179.08c.72-.27,1.47-.54,2.19-.76C160.09,178,159,178.58,157.69,179.08Z"/><path class="cls-3" d="M127.26,187.38c1.17-.23.57-.7,1.27-.73C129.66,185.79,121.08,189.42,127.26,187.38Z"/><polygon class="cls-3" points="154.64 181.33 153.63 181.14 152.41 181.96 154.64 181.33"/><path class="cls-3" d="M135.59,187l3.88-1.05c-.08-.06.4-.26,1-.48A40.9,40.9,0,0,0,135.59,187Z"/><path class="cls-3" d="M140.45,185.49a26.65,26.65,0,0,0,3.07-1C142.86,184.68,141.42,185.13,140.45,185.49Z"/><polygon class="cls-3" points="149.46 183.18 148.3 183.45 145.58 184.3 149.46 183.18"/><path class="cls-3" d="M93.63,196.84c-1.44.18-2.9.26-4.35.33-.45.17.75.29,2.38.15C92.7,197.18,94.31,197,93.63,196.84Z"/><path class="cls-3" d="M107,196.16a7.53,7.53,0,0,1-2,0v.63C105.65,196.62,106.31,196.39,107,196.16Z"/><path class="cls-3" d="M94.22,198.32c-.41.25-6.47.84-.78.52C93.89,198.66,98.32,198.08,94.22,198.32Z"/><path class="cls-3" d="M59.08,159c-.24.29-.44.61-.67.91l.92.47C59.24,160,59.14,159.47,59.08,159Z"/><path class="cls-3" d="M114.47,151.42c-2.43-1.08-2.81-1-3.09-.93s-.51.14-2.73-.77c-1.26-.16,3.63,1.48,2.35,1.27,1.57.36,2.7.82,3.32,1S115,152,114.47,151.42Z"/><path class="cls-3" d="M111,151c-.5-.12-1-.25-1.59-.37C110.3,150.85,110.73,151,111,151Z"/><polygon class="cls-3" points="73.31 253.38 70.95 255.73 72.63 254.35 73.31 253.38"/><path class="cls-3" d="M69.64,258.68l-1,.15-.89,1.89A15.17,15.17,0,0,1,69.64,258.68Z"/><path class="cls-3" d="M194.87,246.74l.17.25a11.35,11.35,0,0,0,.09-2.85Z"/><polygon class="cls-3" points="190.98 201.87 191.08 202.65 191.45 201.12 190.98 201.87"/><path class="cls-3" d="M184,164.55c.25,1.53.7,3.3,1,4.84C184.22,166.08,184.61,164,184,164.55Z"/></g></g></svg>